<?xml version="1.0" encoding="UTF-8" standalone="no"?>
<!DOCTYPE svg PUBLIC "-//W3C//DTD SVG 1.1//EN" "http://www.w3.org/Graphics/SVG/1.1/DTD/svg11.dtd">
<!-- Created with Vectornator (http://vectornator.io/) -->
<svg height="100%" stroke-miterlimit="10" style="fill-rule:nonzero;clip-rule:evenodd;stroke-linecap:round;stroke-linejoin:round;" version="1.1" viewBox="0 0 489.694 97.5302" width="100%" xml:space="preserve" xmlns="http://www.w3.org/2000/svg" xmlns:vectornator="http://vectornator.io" xmlns:xlink="http://www.w3.org/1999/xlink">
<defs>
<clipPath id="TextBounds">
<rect height="10.1" width="30.8906" x="271.936" y="37.5364"/>
</clipPath>
<clipPath id="TextBounds_2">
<rect height="10.1" width="35.3398" x="184.479" y="37.5364"/>
</clipPath>
<clipPath id="TextBounds_3">
<rect height="10.1" width="30.8906" x="357.566" y="37.5364"/>
</clipPath>
<clipPath id="TextBounds_4">
<rect height="10.1" width="43.0391" x="308.924" y="27.6129"/>
</clipPath>
<clipPath id="TextBounds_5">
<rect height="10.1" width="43.0391" x="403.787" y="27.6129"/>
</clipPath>
<clipPath id="TextBounds_6">
<rect height="11.35" width="48.5713" x="174.349" y="47.8619"/>
</clipPath>
<clipPath id="TextBounds_7">
<rect height="11.35" width="48.5713" x="257.396" y="48.7139"/>
</clipPath>
<clipPath id="TextBounds_8">
<rect height="11.35" width="66.9062" x="328.419" y="48.7139"/>
</clipPath>
<clipPath id="TextBounds_9">
<rect height="12.6686" width="86.8477" x="122.298" y="80.4398"/>
</clipPath>
<clipPath id="TextBounds_10">
<rect height="12.6686" width="40.0195" x="287.915" y="12.1622"/>
</clipPath>
<clipPath id="TextBounds_11">
<rect height="12.6686" width="42.5024" x="2.268" y="12.1622"/>
</clipPath>
<clipPath id="TextBounds_12">
<rect height="9.92346" width="35.3398" x="92.7673" y="38.8417"/>
</clipPath>
<clipPath id="TextBounds_13">
<rect height="9.92346" width="35.3398" x="92.7673" y="38.8417"/>
</clipPath>
</defs>
<clipPath id="ArtboardFrame">
<rect height="97.5302" width="489.694" x="0" y="0"/>
</clipPath>
<g clip-path="url(#ArtboardFrame)" id="Background" vectornator:layerName="Background">
<path d="M0 0L489.694 0L489.694 97.5302L0 97.5302L0 0Z" fill="#ffffff" fill-rule="nonzero" opacity="1" stroke="#ffffff" stroke-linecap="round" stroke-linejoin="round" stroke-width="15"/>
</g>
<g id="Study-Setup" vectornator:layerName="Study Setup">
<g fill="#000000" opacity="1" stroke="none">
<path clip-path="url(#TextBounds)" d="M275.354 43.6075C275.25 43.696 275.162 43.7989 275.092 43.9161L277.565 43.9161L277.565 44.8965L273.686 44.8965C273.696 44.4903 273.784 44.1192 273.948 43.7832C274.106 43.4056 274.481 43.0059 275.073 42.584C275.586 42.2168 275.918 41.9538 276.069 41.795C276.3 41.5476 276.416 41.2767 276.416 40.9825C276.416 40.7429 276.35 40.5437 276.217 40.3848C276.084 40.2259 275.894 40.1465 275.647 40.1465C275.308 40.1465 275.078 40.2728 274.955 40.5254C274.885 40.6713 274.843 40.903 274.83 41.2207L273.748 41.2207C273.767 40.739 273.854 40.3496 274.01 40.0528C274.307 39.4877 274.834 39.2051 275.592 39.2051C276.191 39.2051 276.668 39.3711 277.022 39.7032C277.376 40.0352 277.553 40.4746 277.553 41.0215C277.553 41.4408 277.428 41.8132 277.178 42.1387C277.014 42.3549 276.744 42.5957 276.369 42.8614L275.924 43.1778C275.645 43.3757 275.455 43.5189 275.354 43.6075Z"/>
<path clip-path="url(#TextBounds)" d="M283.299 44.8965L282.096 44.8965L282.096 42.7325L280.104 39.1387L281.522 39.1387L282.717 41.6465L283.862 39.1387L285.225 39.1387L283.299 42.7325L283.299 44.8965Z"/>
<path clip-path="url(#TextBounds)" d="M287.104 45.0371C286.562 45.0371 286.084 44.8627 285.67 44.5137C285.256 44.1647 285.049 43.597 285.049 42.8106C285.049 42.0736 285.236 41.5085 285.61 41.1153C285.983 40.722 286.468 40.5254 287.065 40.5254C287.419 40.5254 287.738 40.5918 288.022 40.7246C288.306 40.8575 288.54 41.0671 288.725 41.3536C288.892 41.6062 289 41.8991 289.049 42.2325C289.078 42.4278 289.089 42.709 289.084 43.0762L286.17 43.0762C286.186 43.5033 286.32 43.8028 286.573 43.9746C286.726 44.0814 286.911 44.1348 287.127 44.1348C287.356 44.1348 287.543 44.0697 287.686 43.9395C287.764 43.8692 287.833 43.7715 287.893 43.6465L289.03 43.6465C289.001 43.8991 288.869 44.1556 288.635 44.4161C288.27 44.8301 287.76 45.0371 287.104 45.0371ZM287.065 41.4434C286.807 41.4434 286.607 41.5241 286.465 41.6856C286.323 41.847 286.234 42.0658 286.198 42.3418L287.928 42.3418C287.91 42.0476 287.821 41.8243 287.66 41.6719C287.5 41.5196 287.302 41.4434 287.065 41.4434Z"/>
<path clip-path="url(#TextBounds)" d="M290.151 42.627C290.372 42.4994 290.698 42.4082 291.127 42.3536L291.506 42.3067C291.712 42.2806 291.859 42.2481 291.948 42.209C292.106 42.1413 292.186 42.0358 292.186 41.8926C292.186 41.7181 292.125 41.5977 292.004 41.5313C291.883 41.4649 291.705 41.4317 291.471 41.4317C291.208 41.4317 291.022 41.4968 290.912 41.627C290.834 41.7233 290.782 41.8536 290.756 42.0176L289.682 42.0176C289.705 41.6452 289.81 41.3392 289.994 41.0996C290.289 40.7246 290.794 40.5371 291.51 40.5371C291.976 40.5371 292.39 40.6296 292.752 40.8145C293.114 40.9994 293.295 41.3483 293.295 41.8614L293.295 43.8145C293.295 43.9499 293.298 44.114 293.303 44.3067C293.311 44.4525 293.333 44.5515 293.369 44.6036C293.406 44.6556 293.461 44.6986 293.534 44.7325L293.534 44.8965L292.323 44.8965C292.289 44.8106 292.265 44.7299 292.252 44.6543C292.239 44.5788 292.229 44.4929 292.221 44.3965C292.067 44.5632 291.89 44.7051 291.69 44.8223C291.45 44.9603 291.179 45.0293 290.877 45.0293C290.492 45.0293 290.173 44.9193 289.922 44.6993C289.671 44.4792 289.545 44.1674 289.545 43.7637C289.545 43.2403 289.747 42.8614 290.151 42.627ZM291.869 44.0098C292.07 43.8692 292.174 43.6127 292.182 43.2403L292.182 42.8262C292.112 42.8705 292.041 42.9063 291.969 42.9336C291.897 42.961 291.799 42.9864 291.674 43.0098L291.424 43.0567C291.19 43.0983 291.022 43.1491 290.92 43.209C290.748 43.3106 290.662 43.4681 290.662 43.6817C290.662 43.8718 290.715 44.0091 290.821 44.0938C290.926 44.1784 291.054 44.2207 291.205 44.2207C291.445 44.2207 291.666 44.1504 291.869 44.0098Z"/>
<path clip-path="url(#TextBounds)" d="M296.557 41.67C296.502 41.6674 296.458 41.6661 296.424 41.6661C295.976 41.6661 295.675 41.8119 295.522 42.1036C295.436 42.2676 295.393 42.5202 295.393 42.8614L295.393 44.8965L294.272 44.8965L294.272 40.6387L295.334 40.6387L295.334 41.3809C295.506 41.097 295.656 40.903 295.784 40.7989C295.992 40.6244 296.263 40.5371 296.596 40.5371C296.617 40.5371 296.634 40.5378 296.649 40.5391C296.663 40.5404 296.695 40.5424 296.744 40.545L296.744 41.6856C296.674 41.6778 296.612 41.6726 296.557 41.67Z"/>
<path clip-path="url(#TextBounds)" d="M298.53 41.4825C298.425 41.558 298.373 41.6465 298.373 41.7481C298.373 41.8757 298.428 41.9681 298.537 42.0254C298.647 42.0853 299.034 42.1882 299.698 42.334C300.14 42.4382 300.472 42.5957 300.694 42.8067C300.912 43.0202 301.022 43.2871 301.022 43.6075C301.022 44.0293 300.865 44.3737 300.551 44.6407C300.237 44.9076 299.752 45.0411 299.096 45.0411C298.427 45.0411 297.933 44.8998 297.614 44.6172C297.295 44.3347 297.135 43.9746 297.135 43.5371L298.264 43.5371C298.287 43.7351 298.338 43.8757 298.416 43.959C298.554 44.1075 298.81 44.1817 299.182 44.1817C299.401 44.1817 299.575 44.1491 299.703 44.084C299.832 44.0189 299.897 43.9213 299.897 43.7911C299.897 43.6661 299.845 43.571 299.741 43.5059C299.636 43.4408 299.25 43.3288 298.58 43.17C298.099 43.0502 297.759 42.9004 297.561 42.7207C297.363 42.5437 297.264 42.2884 297.264 41.9551C297.264 41.5619 297.418 41.224 297.727 40.9414C298.035 40.6589 298.47 40.5176 299.03 40.5176C299.561 40.5176 299.994 40.6237 300.328 40.836C300.663 41.0482 300.855 41.4147 300.905 41.9356L299.791 41.9356C299.776 41.7924 299.735 41.6791 299.67 41.5957C299.548 41.4447 299.339 41.3692 299.045 41.3692C298.803 41.3692 298.631 41.4069 298.53 41.4825Z"/>
</g>
<g fill="#000000" opacity="1" stroke="none">
<path clip-path="url(#TextBounds_2)" d="M187.866 40.9903L186.534 40.9903L186.534 40.2325C186.885 40.2168 187.131 40.1934 187.272 40.1621C187.496 40.1127 187.678 40.0137 187.819 39.8653C187.915 39.7637 187.988 39.6283 188.037 39.459C188.066 39.3575 188.08 39.2819 188.08 39.2325L189.006 39.2325L189.006 44.8965L187.866 44.8965L187.866 40.9903Z"/>
<path clip-path="url(#TextBounds_2)" d="M192.631 45.0371C191.91 45.0371 191.404 44.7845 191.114 44.2793C190.823 43.7741 190.678 43.0541 190.678 42.1192C190.678 41.1843 190.823 40.4629 191.114 39.9551C191.404 39.4473 191.91 39.1934 192.631 39.1934C193.353 39.1934 193.858 39.4473 194.149 39.9551C194.439 40.4629 194.584 41.1843 194.584 42.1192C194.584 43.0541 194.439 43.7741 194.149 44.2793C193.858 44.7845 193.353 45.0371 192.631 45.0371ZM193.436 42.1192C193.436 41.4369 193.385 40.9317 193.282 40.6036C193.179 40.2754 192.962 40.1114 192.631 40.1114C192.301 40.1114 192.082 40.2754 191.975 40.6036C191.868 40.9317 191.815 41.4369 191.815 42.1192C191.815 42.7702 191.868 43.2683 191.975 43.6133C192.082 43.9584 192.301 44.1309 192.631 44.1309C192.962 44.1309 193.179 43.9584 193.282 43.6133C193.385 43.2683 193.436 42.7702 193.436 42.1192Z"/>
<path clip-path="url(#TextBounds_2)" d="M200.291 44.8965L199.088 44.8965L199.088 42.7325L197.096 39.1387L198.514 39.1387L199.709 41.6465L200.854 39.1387L202.217 39.1387L200.291 42.7325L200.291 44.8965Z"/>
<path clip-path="url(#TextBounds_2)" d="M204.096 45.0371C203.554 45.0371 203.077 44.8627 202.662 44.5137C202.248 44.1647 202.041 43.597 202.041 42.8106C202.041 42.0736 202.228 41.5085 202.602 41.1153C202.976 40.722 203.461 40.5254 204.057 40.5254C204.411 40.5254 204.73 40.5918 205.014 40.7246C205.298 40.8575 205.532 41.0671 205.717 41.3536C205.884 41.6062 205.992 41.8991 206.041 42.2325C206.07 42.4278 206.082 42.709 206.077 43.0762L203.162 43.0762C203.178 43.5033 203.312 43.8028 203.565 43.9746C203.718 44.0814 203.903 44.1348 204.12 44.1348C204.349 44.1348 204.535 44.0697 204.678 43.9395C204.756 43.8692 204.825 43.7715 204.885 43.6465L206.022 43.6465C205.993 43.8991 205.862 44.1556 205.627 44.4161C205.263 44.8301 204.752 45.0371 204.096 45.0371ZM204.057 41.4434C203.799 41.4434 203.599 41.5241 203.457 41.6856C203.315 41.847 203.226 42.0658 203.19 42.3418L204.92 42.3418C204.902 42.0476 204.813 41.8243 204.653 41.6719C204.493 41.5196 204.294 41.4434 204.057 41.4434Z"/>
<path clip-path="url(#TextBounds_2)" d="M207.143 42.627C207.364 42.4994 207.69 42.4082 208.12 42.3536L208.498 42.3067C208.704 42.2806 208.851 42.2481 208.94 42.209C209.099 42.1413 209.178 42.0358 209.178 41.8926C209.178 41.7181 209.118 41.5977 208.996 41.5313C208.875 41.4649 208.698 41.4317 208.463 41.4317C208.2 41.4317 208.014 41.4968 207.905 41.627C207.827 41.7233 207.774 41.8536 207.748 42.0176L206.674 42.0176C206.698 41.6452 206.802 41.3392 206.987 41.0996C207.281 40.7246 207.786 40.5371 208.502 40.5371C208.968 40.5371 209.383 40.6296 209.745 40.8145C210.107 40.9994 210.287 41.3483 210.287 41.8614L210.287 43.8145C210.287 43.9499 210.29 44.114 210.295 44.3067C210.303 44.4525 210.325 44.5515 210.362 44.6036C210.398 44.6556 210.453 44.6986 210.526 44.7325L210.526 44.8965L209.315 44.8965C209.281 44.8106 209.258 44.7299 209.245 44.6543C209.232 44.5788 209.221 44.4929 209.213 44.3965C209.06 44.5632 208.883 44.7051 208.682 44.8223C208.442 44.9603 208.172 45.0293 207.87 45.0293C207.484 45.0293 207.166 44.9193 206.914 44.6993C206.663 44.4792 206.537 44.1674 206.537 43.7637C206.537 43.2403 206.739 42.8614 207.143 42.627ZM208.862 44.0098C209.062 43.8692 209.166 43.6127 209.174 43.2403L209.174 42.8262C209.104 42.8705 209.033 42.9063 208.961 42.9336C208.89 42.961 208.791 42.9864 208.666 43.0098L208.416 43.0567C208.182 43.0983 208.014 43.1491 207.912 43.209C207.741 43.3106 207.655 43.4681 207.655 43.6817C207.655 43.8718 207.707 44.0091 207.813 44.0938C207.918 44.1784 208.047 44.2207 208.198 44.2207C208.437 44.2207 208.659 44.1504 208.862 44.0098Z"/>
<path clip-path="url(#TextBounds_2)" d="M213.549 41.67C213.495 41.6674 213.45 41.6661 213.416 41.6661C212.968 41.6661 212.668 41.8119 212.514 42.1036C212.428 42.2676 212.385 42.5202 212.385 42.8614L212.385 44.8965L211.264 44.8965L211.264 40.6387L212.327 40.6387L212.327 41.3809C212.498 41.097 212.648 40.903 212.776 40.7989C212.984 40.6244 213.255 40.5371 213.588 40.5371C213.609 40.5371 213.627 40.5378 213.641 40.5391C213.655 40.5404 213.687 40.5424 213.737 40.545L213.737 41.6856C213.666 41.6778 213.604 41.6726 213.549 41.67Z"/>
<path clip-path="url(#TextBounds_2)" d="M215.522 41.4825C215.418 41.558 215.366 41.6465 215.366 41.7481C215.366 41.8757 215.42 41.9681 215.53 42.0254C215.639 42.0853 216.026 42.1882 216.69 42.334C217.133 42.4382 217.465 42.5957 217.686 42.8067C217.905 43.0202 218.014 43.2871 218.014 43.6075C218.014 44.0293 217.857 44.3737 217.543 44.6407C217.23 44.9076 216.745 45.0411 216.088 45.0411C215.419 45.0411 214.925 44.8998 214.606 44.6172C214.287 44.3347 214.127 43.9746 214.127 43.5371L215.256 43.5371C215.28 43.7351 215.33 43.8757 215.409 43.959C215.547 44.1075 215.802 44.1817 216.174 44.1817C216.393 44.1817 216.567 44.1491 216.696 44.084C216.825 44.0189 216.889 43.9213 216.889 43.7911C216.889 43.6661 216.837 43.571 216.733 43.5059C216.629 43.4408 216.242 43.3288 215.573 43.17C215.091 43.0502 214.751 42.9004 214.553 42.7207C214.355 42.5437 214.256 42.2884 214.256 41.9551C214.256 41.5619 214.411 41.224 214.719 40.9414C215.028 40.6589 215.462 40.5176 216.022 40.5176C216.553 40.5176 216.986 40.6237 217.321 40.836C217.655 41.0482 217.847 41.4147 217.897 41.9356L216.784 41.9356C216.768 41.7924 216.728 41.6791 216.662 41.5957C216.54 41.4447 216.332 41.3692 216.037 41.3692C215.795 41.3692 215.623 41.4069 215.522 41.4825Z"/>
</g>
<g fill="#000000" opacity="1" stroke="none">
<path clip-path="url(#TextBounds_3)" d="M361.203 45.045C360.57 45.045 360.091 44.8776 359.765 44.543C359.44 44.2084 359.277 43.8028 359.277 43.3262C359.277 43.0085 359.349 42.7207 359.494 42.4629C359.639 42.2051 359.85 42.0111 360.129 41.8809C359.855 41.6986 359.678 41.5013 359.596 41.2891C359.514 41.0769 359.472 40.8783 359.472 40.6934C359.472 40.2819 359.627 39.931 359.937 39.6407C360.247 39.3503 360.685 39.2051 361.25 39.2051C361.815 39.2051 362.252 39.3503 362.562 39.6407C362.872 39.931 363.027 40.2819 363.027 40.6934C363.027 40.8783 362.986 41.0769 362.904 41.2891C362.822 41.5013 362.644 41.6856 362.371 41.8418C362.65 41.9981 362.859 42.2051 363 42.4629C363.14 42.7207 363.211 43.0085 363.211 43.3262C363.211 43.8028 363.034 44.2084 362.681 44.543C362.329 44.8776 361.836 45.045 361.203 45.045ZM361.25 44.1309C361.505 44.1309 361.705 44.0541 361.849 43.9004C361.994 43.7468 362.066 43.5306 362.066 43.252C362.066 42.9629 361.993 42.7435 361.846 42.5938C361.698 42.444 361.5 42.3692 361.25 42.3692C361 42.3692 360.801 42.444 360.654 42.5938C360.507 42.7435 360.433 42.9629 360.433 43.252C360.433 43.5306 360.506 43.7468 360.65 43.9004C360.795 44.0541 360.995 44.1309 361.25 44.1309ZM360.726 41.3223C360.851 41.4525 361.026 41.5176 361.25 41.5176C361.476 41.5176 361.652 41.4525 361.775 41.3223C361.899 41.1921 361.961 41.0241 361.961 40.8184C361.961 40.5944 361.899 40.4193 361.775 40.293C361.652 40.1667 361.476 40.1036 361.25 40.1036C361.026 40.1036 360.851 40.1667 360.724 40.293C360.598 40.4193 360.535 40.5944 360.535 40.8184C360.535 41.0241 360.599 41.1921 360.726 41.3223Z"/>
<path clip-path="url(#TextBounds_3)" d="M368.93 44.8965L367.726 44.8965L367.726 42.7325L365.734 39.1387L367.152 39.1387L368.347 41.6465L369.492 39.1387L370.855 39.1387L368.93 42.7325L368.93 44.8965Z"/>
<path clip-path="url(#TextBounds_3)" d="M372.734 45.0371C372.193 45.0371 371.715 44.8627 371.301 44.5137C370.887 44.1647 370.68 43.597 370.68 42.8106C370.68 42.0736 370.866 41.5085 371.24 41.1153C371.614 40.722 372.099 40.5254 372.695 40.5254C373.049 40.5254 373.368 40.5918 373.652 40.7246C373.936 40.8575 374.17 41.0671 374.355 41.3536C374.522 41.6062 374.63 41.8991 374.68 42.2325C374.708 42.4278 374.72 42.709 374.715 43.0762L371.801 43.0762C371.816 43.5033 371.95 43.8028 372.203 43.9746C372.357 44.0814 372.542 44.1348 372.758 44.1348C372.987 44.1348 373.173 44.0697 373.316 43.9395C373.394 43.8692 373.463 43.7715 373.523 43.6465L374.66 43.6465C374.631 43.8991 374.5 44.1556 374.265 44.4161C373.901 44.8301 373.39 45.0371 372.734 45.0371ZM372.695 41.4434C372.437 41.4434 372.237 41.5241 372.096 41.6856C371.954 41.847 371.864 42.0658 371.828 42.3418L373.558 42.3418C373.54 42.0476 373.451 41.8243 373.291 41.6719C373.131 41.5196 372.932 41.4434 372.695 41.4434Z"/>
<path clip-path="url(#TextBounds_3)" d="M375.781 42.627C376.002 42.4994 376.328 42.4082 376.758 42.3536L377.137 42.3067C377.342 42.2806 377.489 42.2481 377.578 42.209C377.737 42.1413 377.816 42.0358 377.816 41.8926C377.816 41.7181 377.756 41.5977 377.635 41.5313C377.514 41.4649 377.336 41.4317 377.101 41.4317C376.838 41.4317 376.652 41.4968 376.543 41.627C376.465 41.7233 376.413 41.8536 376.387 42.0176L375.312 42.0176C375.336 41.6452 375.44 41.3392 375.625 41.0996C375.919 40.7246 376.424 40.5371 377.14 40.5371C377.607 40.5371 378.021 40.6296 378.383 40.8145C378.745 40.9994 378.926 41.3483 378.926 41.8614L378.926 43.8145C378.926 43.9499 378.928 44.114 378.933 44.3067C378.941 44.4525 378.963 44.5515 379 44.6036C379.036 44.6556 379.091 44.6986 379.164 44.7325L379.164 44.8965L377.953 44.8965C377.919 44.8106 377.896 44.7299 377.883 44.6543C377.87 44.5788 377.859 44.4929 377.851 44.3965C377.698 44.5632 377.521 44.7051 377.32 44.8223C377.081 44.9603 376.81 45.0293 376.508 45.0293C376.122 45.0293 375.804 44.9193 375.553 44.6993C375.301 44.4792 375.176 44.1674 375.176 43.7637C375.176 43.2403 375.377 42.8614 375.781 42.627ZM377.5 44.0098C377.7 43.8692 377.805 43.6127 377.812 43.2403L377.812 42.8262C377.742 42.8705 377.671 42.9063 377.599 42.9336C377.528 42.961 377.43 42.9864 377.305 43.0098L377.055 43.0567C376.82 43.0983 376.652 43.1491 376.551 43.209C376.379 43.3106 376.293 43.4681 376.293 43.6817C376.293 43.8718 376.346 44.0091 376.451 44.0938C376.556 44.1784 376.685 44.2207 376.836 44.2207C377.075 44.2207 377.297 44.1504 377.5 44.0098Z"/>
<path clip-path="url(#TextBounds_3)" d="M382.187 41.67C382.133 41.6674 382.088 41.6661 382.055 41.6661C381.607 41.6661 381.306 41.8119 381.152 42.1036C381.066 42.2676 381.023 42.5202 381.023 42.8614L381.023 44.8965L379.902 44.8965L379.902 40.6387L380.965 40.6387L380.965 41.3809C381.137 41.097 381.286 40.903 381.414 40.7989C381.622 40.6244 381.893 40.5371 382.226 40.5371C382.247 40.5371 382.265 40.5378 382.279 40.5391C382.293 40.5404 382.325 40.5424 382.375 40.545L382.375 41.6856C382.305 41.6778 382.242 41.6726 382.187 41.67Z"/>
<path clip-path="url(#TextBounds_3)" d="M384.16 41.4825C384.056 41.558 384.004 41.6465 384.004 41.7481C384.004 41.8757 384.058 41.9681 384.168 42.0254C384.277 42.0853 384.664 42.1882 385.328 42.334C385.771 42.4382 386.103 42.5957 386.324 42.8067C386.543 43.0202 386.652 43.2871 386.652 43.6075C386.652 44.0293 386.495 44.3737 386.181 44.6407C385.868 44.9076 385.383 45.0411 384.726 45.0411C384.057 45.0411 383.563 44.8998 383.244 44.6172C382.925 44.3347 382.765 43.9746 382.765 43.5371L383.894 43.5371C383.918 43.7351 383.969 43.8757 384.047 43.959C384.185 44.1075 384.44 44.1817 384.812 44.1817C385.031 44.1817 385.205 44.1491 385.334 44.084C385.463 44.0189 385.527 43.9213 385.527 43.7911C385.527 43.6661 385.475 43.571 385.371 43.5059C385.267 43.4408 384.88 43.3288 384.211 43.17C383.729 43.0502 383.389 42.9004 383.191 42.7207C382.993 42.5437 382.894 42.2884 382.894 41.9551C382.894 41.5619 383.049 41.224 383.357 40.9414C383.666 40.6589 384.1 40.5176 384.66 40.5176C385.191 40.5176 385.624 40.6237 385.959 40.836C386.293 41.0482 386.486 41.4147 386.535 41.9356L385.422 41.9356C385.406 41.7924 385.366 41.6791 385.301 41.5957C385.178 41.4447 384.97 41.3692 384.676 41.3692C384.433 41.3692 384.262 41.4069 384.16 41.4825Z"/>
</g>
</g>
<g id="Back-Study-Dates" vectornator:layerName="Back Study Dates">
<g fill="#000000" opacity="1" stroke="none">
<path clip-path="url(#TextBounds_4)" d="M312.342 33.684C312.238 33.7725 312.15 33.8754 312.08 33.9926L314.553 33.9926L314.553 34.9731L310.674 34.9731C310.684 34.5668 310.771 34.1957 310.936 33.8598C311.094 33.4822 311.469 33.0824 312.061 32.6606C312.574 32.2934 312.906 32.0303 313.057 31.8715C313.288 31.6241 313.404 31.3533 313.404 31.059C313.404 30.8194 313.338 30.6202 313.205 30.4613C313.072 30.3025 312.882 30.2231 312.635 30.2231C312.296 30.2231 312.066 30.3494 311.943 30.602C311.873 30.7478 311.831 30.9796 311.818 31.2973L310.736 31.2973C310.755 30.8155 310.842 30.4262 310.998 30.1293C311.295 29.5642 311.822 29.2816 312.58 29.2816C313.179 29.2816 313.656 29.4477 314.01 29.7797C314.364 30.1117 314.541 30.5512 314.541 31.0981C314.541 31.5173 314.416 31.8897 314.166 32.2152C314.002 32.4314 313.732 32.6723 313.357 32.9379L312.912 33.2543C312.633 33.4522 312.443 33.5955 312.342 33.684Z"/>
<path clip-path="url(#TextBounds_4)" d="M317.076 35.1137C316.355 35.1137 315.849 34.8611 315.559 34.3559C315.268 33.8507 315.123 33.1306 315.123 32.1957C315.123 31.2608 315.268 30.5395 315.559 30.0316C315.849 29.5238 316.355 29.2699 317.076 29.2699C317.797 29.2699 318.303 29.5238 318.594 30.0316C318.884 30.5395 319.029 31.2608 319.029 32.1957C319.029 33.1306 318.884 33.8507 318.594 34.3559C318.303 34.8611 317.797 35.1137 317.076 35.1137ZM317.881 32.1957C317.881 31.5134 317.829 31.0082 317.727 30.6801C317.624 30.352 317.407 30.1879 317.076 30.1879C316.745 30.1879 316.527 30.352 316.42 30.6801C316.313 31.0082 316.26 31.5134 316.26 32.1957C316.26 32.8468 316.313 33.3448 316.42 33.6899C316.527 34.0349 316.745 34.2074 317.076 34.2074C317.407 34.2074 317.624 34.0349 317.727 33.6899C317.829 33.3448 317.881 32.8468 317.881 32.1957Z"/>
<path clip-path="url(#TextBounds_4)" d="M321.209 31.0668L319.877 31.0668L319.877 30.309C320.228 30.2934 320.475 30.2699 320.615 30.2387C320.839 30.1892 321.021 30.0902 321.162 29.9418C321.258 29.8402 321.331 29.7048 321.381 29.5356C321.409 29.434 321.424 29.3585 321.424 29.309L322.35 29.309L322.35 34.9731L321.209 34.9731L321.209 31.0668Z"/>
<path clip-path="url(#TextBounds_4)" d="M325.303 30.4379C325.178 30.6046 325.118 30.8272 325.123 31.1059L324.084 31.1059C324.094 30.8246 324.143 30.5577 324.228 30.3051C324.32 30.0837 324.463 29.8793 324.658 29.6918C324.804 29.559 324.977 29.4574 325.178 29.3871C325.378 29.3168 325.624 29.2816 325.916 29.2816C326.458 29.2816 326.894 29.4216 327.227 29.7016C327.559 29.9815 327.725 30.3572 327.725 30.8285C327.725 31.1619 327.626 31.4431 327.428 31.6723C327.303 31.8155 327.172 31.9132 327.037 31.9652C327.139 31.9652 327.284 32.0525 327.475 32.227C327.758 32.49 327.9 32.8494 327.9 33.3051C327.9 33.7843 327.734 34.2055 327.402 34.5688C327.07 34.932 326.579 35.1137 325.928 35.1137C325.126 35.1137 324.568 34.852 324.256 34.3285C324.092 34.0499 324.001 33.6853 323.982 33.2348L325.076 33.2348C325.076 33.4613 325.113 33.6488 325.186 33.7973C325.321 34.0707 325.567 34.2074 325.924 34.2074C326.143 34.2074 326.333 34.1326 326.496 33.9828C326.659 33.8331 326.74 33.6176 326.74 33.3363C326.74 32.9639 326.589 32.7152 326.287 32.5902C326.115 32.5199 325.844 32.4848 325.475 32.4848L325.475 31.6879C325.837 31.6827 326.089 31.6475 326.232 31.5824C326.48 31.4731 326.603 31.2517 326.603 30.9184C326.603 30.7022 326.54 30.5264 326.414 30.391C326.288 30.2556 326.11 30.1879 325.881 30.1879C325.618 30.1879 325.425 30.2712 325.303 30.4379Z"/>
<path clip-path="url(#TextBounds_4)" d="M327.783 34.9731L330.014 29.0395L330.939 29.0395L328.701 34.9731L327.783 34.9731Z"/>
<path clip-path="url(#TextBounds_4)" d="M332.646 35.1137C331.925 35.1137 331.419 34.8611 331.129 34.3559C330.838 33.8507 330.693 33.1306 330.693 32.1957C330.693 31.2608 330.838 30.5395 331.129 30.0316C331.419 29.5238 331.925 29.2699 332.646 29.2699C333.368 29.2699 333.874 29.5238 334.164 30.0316C334.454 30.5395 334.6 31.2608 334.6 32.1957C334.6 33.1306 334.454 33.8507 334.164 34.3559C333.874 34.8611 333.368 35.1137 332.646 35.1137ZM333.451 32.1957C333.451 31.5134 333.4 31.0082 333.297 30.6801C333.194 30.352 332.977 30.1879 332.646 30.1879C332.316 30.1879 332.097 30.352 331.99 30.6801C331.883 31.0082 331.83 31.5134 331.83 32.1957C331.83 32.8468 331.883 33.3448 331.99 33.6899C332.097 34.0349 332.316 34.2074 332.646 34.2074C332.977 34.2074 333.194 34.0349 333.297 33.6899C333.4 33.3448 333.451 32.8468 333.451 32.1957Z"/>
<path clip-path="url(#TextBounds_4)" d="M336.779 31.0668L335.447 31.0668L335.447 30.309C335.799 30.2934 336.045 30.2699 336.186 30.2387C336.409 30.1892 336.592 30.0902 336.732 29.9418C336.829 29.8402 336.902 29.7048 336.951 29.5356C336.98 29.434 336.994 29.3585 336.994 29.309L337.92 29.309L337.92 34.9731L336.779 34.9731L336.779 31.0668Z"/>
<path clip-path="url(#TextBounds_4)" d="M338.904 34.9731L341.135 29.0395L342.061 29.0395L339.822 34.9731L338.904 34.9731Z"/>
<path clip-path="url(#TextBounds_4)" d="M343.768 35.1137C343.046 35.1137 342.54 34.8611 342.25 34.3559C341.96 33.8507 341.814 33.1306 341.814 32.1957C341.814 31.2608 341.96 30.5395 342.25 30.0316C342.54 29.5238 343.046 29.2699 343.768 29.2699C344.489 29.2699 344.995 29.5238 345.285 30.0316C345.575 30.5395 345.721 31.2608 345.721 32.1957C345.721 33.1306 345.575 33.8507 345.285 34.3559C344.995 34.8611 344.489 35.1137 343.768 35.1137ZM344.572 32.1957C344.572 31.5134 344.521 31.0082 344.418 30.6801C344.315 30.352 344.098 30.1879 343.768 30.1879C343.437 30.1879 343.218 30.352 343.111 30.6801C343.005 31.0082 342.951 31.5134 342.951 32.1957C342.951 32.8468 343.005 33.3448 343.111 33.6899C343.218 34.0349 343.437 34.2074 343.768 34.2074C344.098 34.2074 344.315 34.0349 344.418 33.6899C344.521 33.3448 344.572 32.8468 344.572 32.1957Z"/>
<path clip-path="url(#TextBounds_4)" d="M347.9 31.0668L346.568 31.0668L346.568 30.309C346.92 30.2934 347.166 30.2699 347.307 30.2387C347.531 30.1892 347.713 30.0902 347.853 29.9418C347.95 29.8402 348.023 29.7048 348.072 29.5356C348.101 29.434 348.115 29.3585 348.115 29.309L349.041 29.309L349.041 34.9731L347.9 34.9731L347.9 31.0668Z"/>
</g>
<g fill="#000000" opacity="1" stroke="none">
<path clip-path="url(#TextBounds_5)" d="M407.205 33.684C407.101 33.7725 407.014 33.8754 406.944 33.9926L409.416 33.9926L409.416 34.9731L405.537 34.9731C405.548 34.5668 405.635 34.1957 405.799 33.8598C405.958 33.4822 406.333 33.0824 406.924 32.6606C407.437 32.2934 407.769 32.0303 407.92 31.8715C408.152 31.6241 408.268 31.3533 408.268 31.059C408.268 30.8194 408.201 30.6202 408.069 30.4613C407.936 30.3025 407.746 30.2231 407.498 30.2231C407.16 30.2231 406.929 30.3494 406.807 30.602C406.737 30.7478 406.695 30.9796 406.682 31.2973L405.6 31.2973C405.618 30.8155 405.705 30.4262 405.862 30.1293C406.159 29.5642 406.686 29.2816 407.444 29.2816C408.043 29.2816 408.519 29.4477 408.873 29.7797C409.228 30.1117 409.405 30.5512 409.405 31.0981C409.405 31.5173 409.28 31.8897 409.03 32.2152C408.866 32.4314 408.596 32.6723 408.221 32.9379L407.776 33.2543C407.497 33.4522 407.307 33.5955 407.205 33.684Z"/>
<path clip-path="url(#TextBounds_5)" d="M411.94 35.1137C411.218 35.1137 410.713 34.8611 410.422 34.3559C410.132 33.8507 409.987 33.1306 409.987 32.1957C409.987 31.2608 410.132 30.5395 410.422 30.0316C410.713 29.5238 411.218 29.2699 411.94 29.2699C412.661 29.2699 413.167 29.5238 413.457 30.0316C413.748 30.5395 413.893 31.2608 413.893 32.1957C413.893 33.1306 413.748 33.8507 413.457 34.3559C413.167 34.8611 412.661 35.1137 411.94 35.1137ZM412.744 32.1957C412.744 31.5134 412.693 31.0082 412.59 30.6801C412.487 30.352 412.271 30.1879 411.94 30.1879C411.609 30.1879 411.39 30.352 411.284 30.6801C411.177 31.0082 411.123 31.5134 411.123 32.1957C411.123 32.8468 411.177 33.3448 411.284 33.6899C411.39 34.0349 411.609 34.2074 411.94 34.2074C412.271 34.2074 412.487 34.0349 412.59 33.6899C412.693 33.3448 412.744 32.8468 412.744 32.1957Z"/>
<path clip-path="url(#TextBounds_5)" d="M416.104 33.684C416 33.7725 415.912 33.8754 415.842 33.9926L418.315 33.9926L418.315 34.9731L414.436 34.9731C414.446 34.5668 414.534 34.1957 414.698 33.8598C414.856 33.4822 415.231 33.0824 415.823 32.6606C416.336 32.2934 416.668 32.0303 416.819 31.8715C417.05 31.6241 417.166 31.3533 417.166 31.059C417.166 30.8194 417.1 30.6202 416.967 30.4613C416.834 30.3025 416.644 30.2231 416.397 30.2231C416.058 30.2231 415.828 30.3494 415.705 30.602C415.635 30.7478 415.593 30.9796 415.58 31.2973L414.498 31.2973C414.517 30.8155 414.604 30.4262 414.76 30.1293C415.057 29.5642 415.584 29.2816 416.342 29.2816C416.941 29.2816 417.418 29.4477 417.772 29.7797C418.126 30.1117 418.303 30.5512 418.303 31.0981C418.303 31.5173 418.178 31.8897 417.928 32.2152C417.764 32.4314 417.494 32.6723 417.119 32.9379L416.674 33.2543C416.396 33.4522 416.205 33.5955 416.104 33.684Z"/>
<path clip-path="url(#TextBounds_5)" d="M420.522 31.0668L419.19 31.0668L419.19 30.309C419.541 30.2934 419.787 30.2699 419.928 30.2387C420.152 30.1892 420.334 30.0902 420.475 29.9418C420.571 29.8402 420.644 29.7048 420.694 29.5356C420.722 29.434 420.737 29.3585 420.737 29.309L421.662 29.309L421.662 34.9731L420.522 34.9731L420.522 31.0668Z"/>
<path clip-path="url(#TextBounds_5)" d="M422.647 34.9731L424.877 29.0395L425.803 29.0395L423.565 34.9731L422.647 34.9731Z"/>
<path clip-path="url(#TextBounds_5)" d="M427.51 35.1137C426.789 35.1137 426.283 34.8611 425.993 34.3559C425.702 33.8507 425.557 33.1306 425.557 32.1957C425.557 31.2608 425.702 30.5395 425.993 30.0316C426.283 29.5238 426.789 29.2699 427.51 29.2699C428.231 29.2699 428.737 29.5238 429.028 30.0316C429.318 30.5395 429.463 31.2608 429.463 32.1957C429.463 33.1306 429.318 33.8507 429.028 34.3559C428.737 34.8611 428.231 35.1137 427.51 35.1137ZM428.315 32.1957C428.315 31.5134 428.263 31.0082 428.16 30.6801C428.058 30.352 427.841 30.1879 427.51 30.1879C427.179 30.1879 426.961 30.352 426.854 30.6801C426.747 31.0082 426.694 31.5134 426.694 32.1957C426.694 32.8468 426.747 33.3448 426.854 33.6899C426.961 34.0349 427.179 34.2074 427.51 34.2074C427.841 34.2074 428.058 34.0349 428.16 33.6899C428.263 33.3448 428.315 32.8468 428.315 32.1957Z"/>
<path clip-path="url(#TextBounds_5)" d="M431.643 31.0668L430.311 31.0668L430.311 30.309C430.662 30.2934 430.909 30.2699 431.049 30.2387C431.273 30.1892 431.455 30.0902 431.596 29.9418C431.692 29.8402 431.765 29.7048 431.815 29.5356C431.843 29.434 431.858 29.3585 431.858 29.309L432.784 29.309L432.784 34.9731L431.643 34.9731L431.643 31.0668Z"/>
<path clip-path="url(#TextBounds_5)" d="M433.768 34.9731L435.998 29.0395L436.924 29.0395L434.686 34.9731L433.768 34.9731Z"/>
<path clip-path="url(#TextBounds_5)" d="M438.631 35.1137C437.91 35.1137 437.404 34.8611 437.114 34.3559C436.823 33.8507 436.678 33.1306 436.678 32.1957C436.678 31.2608 436.823 30.5395 437.114 30.0316C437.404 29.5238 437.91 29.2699 438.631 29.2699C439.353 29.2699 439.858 29.5238 440.149 30.0316C440.439 30.5395 440.584 31.2608 440.584 32.1957C440.584 33.1306 440.439 33.8507 440.149 34.3559C439.858 34.8611 439.353 35.1137 438.631 35.1137ZM439.436 32.1957C439.436 31.5134 439.384 31.0082 439.282 30.6801C439.179 30.352 438.962 30.1879 438.631 30.1879C438.3 30.1879 438.082 30.352 437.975 30.6801C437.868 31.0082 437.815 31.5134 437.815 32.1957C437.815 32.8468 437.868 33.3448 437.975 33.6899C438.082 34.0349 438.3 34.2074 438.631 34.2074C438.962 34.2074 439.179 34.0349 439.282 33.6899C439.384 33.3448 439.436 32.8468 439.436 32.1957Z"/>
<path clip-path="url(#TextBounds_5)" d="M442.764 31.0668L441.432 31.0668L441.432 30.309C441.784 30.2934 442.03 30.2699 442.17 30.2387C442.394 30.1892 442.576 30.0902 442.717 29.9418C442.813 29.8402 442.886 29.7048 442.936 29.5356C442.965 29.434 442.979 29.3585 442.979 29.309L443.905 29.309L443.905 34.9731L442.764 34.9731L442.764 31.0668Z"/>
</g>
</g>
<g id="Time-Line" vectornator:layerName="Time Line">
<g opacity="1">
<path d="M28.35 53.8873L480.193 53.7009" fill="#eebf5b" fill-rule="nonzero" opacity="1" stroke="#c0cad8" stroke-dasharray="10.0" stroke-linecap="round" stroke-linejoin="round" stroke-width="10"/>
<path d="M137.078 53.865L267.383 53.865L137.078 53.865Z" fill="none" opacity="1" stroke="#6b7e6b" stroke-linecap="round" stroke-linejoin="round" stroke-width="15"/>
<path d="M267.045 53.865L311.905 53.865L267.045 53.865Z" fill="none" opacity="1" stroke="#eebf5b" stroke-linecap="round" stroke-linejoin="round" stroke-width="15"/>
<path d="M314.399 53.865L425.524 53.865L314.399 53.865Z" fill="none" opacity="1" stroke="#d5694f" stroke-linecap="round" stroke-linejoin="round" stroke-width="15"/>
</g>
<g opacity="1">
<g fill="#000000" opacity="1" stroke="none">
<path clip-path="url(#TextBounds_6)" d="M186.04 54.9775L186.04 56.1421L181.131 56.1421L181.131 49.6645L185.881 49.6645L185.881 50.8115L182.454 50.8115L182.454 52.187L185.6 52.187L185.6 53.312L182.454 53.312L182.454 54.9775L186.04 54.9775Z"/>
<path clip-path="url(#TextBounds_6)" d="M188.044 56.1421L186.523 56.1421L188.158 53.7163L186.593 51.3608L188.127 51.3608L188.927 52.7495L189.709 51.3608L191.199 51.3608L189.626 53.6943L191.26 56.1421L189.7 56.1421L188.874 54.705L188.044 56.1421Z"/>
<path clip-path="url(#TextBounds_6)" d="M193.607 55.9926C193.469 55.8872 193.335 55.7334 193.203 55.5312L193.203 58.0273L191.964 58.0273L191.964 51.352L193.163 51.352L193.163 52.0595C193.298 51.8515 193.442 51.6875 193.594 51.5673C193.872 51.3535 194.203 51.2465 194.587 51.2465C195.147 51.2465 195.621 51.4531 196.009 51.8662C196.397 52.2793 196.591 52.8857 196.591 53.6855C196.591 54.5293 196.401 55.1723 196.022 55.6147C195.642 56.0571 195.154 56.2783 194.556 56.2783C194.175 56.2783 193.859 56.1831 193.607 55.9926ZM194.227 55.228C194.575 55.228 194.841 55.0932 195.024 54.8237C195.207 54.5542 195.299 54.1953 195.299 53.747C195.299 53.3779 195.215 53.0512 195.046 52.7671C194.878 52.4829 194.605 52.3408 194.227 52.3408C193.773 52.3408 193.461 52.5561 193.291 52.9868C193.203 53.2153 193.159 53.5053 193.159 53.8569C193.159 54.4135 193.307 54.8047 193.603 55.0302C193.778 55.1621 193.986 55.228 194.227 55.228Z"/>
<path clip-path="url(#TextBounds_6)" d="M201.491 51.9585C201.895 52.4653 202.097 53.0644 202.097 53.7558C202.097 54.4589 201.895 55.0603 201.491 55.5598C201.087 56.0593 200.473 56.309 199.65 56.309C198.826 56.309 198.213 56.0593 197.808 55.5598C197.404 55.0603 197.202 54.4589 197.202 53.7558C197.202 53.0644 197.404 52.4653 197.808 51.9585C198.213 51.4516 198.826 51.1982 199.65 51.1982C200.473 51.1982 201.087 51.4516 201.491 51.9585ZM200.489 52.644C200.293 52.3862 200.011 52.2573 199.645 52.2573C199.279 52.2573 198.997 52.3869 198.799 52.6462C198.601 52.9055 198.503 53.2754 198.503 53.7558C198.503 54.2363 198.601 54.6069 198.799 54.8676C198.997 55.1284 199.279 55.2588 199.645 55.2588C200.011 55.2588 200.293 55.1284 200.489 54.8676C200.685 54.6069 200.783 54.2363 200.783 53.7558C200.783 53.2754 200.685 52.9047 200.489 52.644Z"/>
<path clip-path="url(#TextBounds_6)" d="M204.268 52.3012C204.151 52.3862 204.092 52.4858 204.092 52.6001C204.092 52.7436 204.154 52.8476 204.277 52.9121C204.4 52.9795 204.835 53.0952 205.582 53.2592C206.08 53.3764 206.454 53.5537 206.703 53.791C206.949 54.0312 207.072 54.3315 207.072 54.6919C207.072 55.1665 206.895 55.5539 206.542 55.8542C206.189 56.1545 205.644 56.3047 204.905 56.3047C204.152 56.3047 203.597 56.1457 203.238 55.8278C202.879 55.51 202.699 55.1049 202.699 54.6128L203.969 54.6128C203.996 54.8354 204.053 54.9936 204.141 55.0874C204.296 55.2544 204.583 55.3379 205.002 55.3379C205.248 55.3379 205.444 55.3012 205.589 55.228C205.734 55.1547 205.806 55.0449 205.806 54.8984C205.806 54.7578 205.748 54.6508 205.631 54.5776C205.513 54.5044 205.078 54.3784 204.325 54.1997C203.783 54.0649 203.401 53.8964 203.178 53.6943C202.956 53.4951 202.844 53.208 202.844 52.833C202.844 52.3906 203.018 52.0105 203.365 51.6926C203.712 51.3747 204.201 51.2158 204.831 51.2158C205.428 51.2158 205.915 51.3352 206.292 51.5739C206.668 51.8127 206.884 52.2251 206.94 52.811L205.688 52.811C205.67 52.6499 205.625 52.5224 205.551 52.4287C205.414 52.2588 205.179 52.1738 204.848 52.1738C204.576 52.1738 204.382 52.2163 204.268 52.3012Z"/>
<path clip-path="url(#TextBounds_6)" d="M211.018 53.958L211.018 51.352L212.288 51.352L212.288 56.1421L211.071 56.1421L211.071 55.4653C211.059 55.4799 211.03 55.5239 210.983 55.5971C210.936 55.6704 210.881 55.7348 210.816 55.7905C210.62 55.9663 210.43 56.0864 210.247 56.1508C210.064 56.2153 209.849 56.2475 209.603 56.2475C208.894 56.2475 208.417 55.9926 208.171 55.4829C208.033 55.2016 207.964 54.7871 207.964 54.2392L207.964 51.352L209.247 51.352L209.247 54.2392C209.247 54.5117 209.279 54.7168 209.344 54.8545C209.458 55.0976 209.682 55.2192 210.016 55.2192C210.444 55.2192 210.737 55.0464 210.895 54.7006C210.977 54.5131 211.018 54.2656 211.018 53.958Z"/>
<path clip-path="url(#TextBounds_6)" d="M216.054 52.5122C215.993 52.5092 215.943 52.5078 215.905 52.5078C215.401 52.5078 215.063 52.6718 214.89 53C214.793 53.1845 214.745 53.4687 214.745 53.8525L214.745 56.1421L213.484 56.1421L213.484 51.352L214.679 51.352L214.679 52.187C214.872 51.8676 215.041 51.6494 215.184 51.5322C215.419 51.3359 215.723 51.2378 216.098 51.2378C216.122 51.2378 216.142 51.2385 216.158 51.24C216.174 51.2414 216.21 51.2436 216.265 51.2465L216.265 52.5297C216.186 52.521 216.116 52.5151 216.054 52.5122Z"/>
<path clip-path="url(#TextBounds_6)" d="M218.933 56.3003C218.323 56.3003 217.786 56.104 217.32 55.7114C216.854 55.3188 216.621 54.6801 216.621 53.7954C216.621 52.9663 216.831 52.3305 217.252 51.8881C217.672 51.4458 218.218 51.2246 218.889 51.2246C219.287 51.2246 219.646 51.2993 219.965 51.4487C220.285 51.5981 220.548 51.8339 220.756 52.1562C220.944 52.4404 221.066 52.77 221.121 53.145C221.153 53.3647 221.167 53.6811 221.161 54.0942L217.882 54.0942C217.9 54.5747 218.051 54.9116 218.335 55.1049C218.508 55.2251 218.716 55.2851 218.959 55.2851C219.217 55.2851 219.426 55.2119 219.588 55.0654C219.675 54.9863 219.753 54.8764 219.82 54.7358L221.099 54.7358C221.067 55.02 220.919 55.3086 220.655 55.6015C220.245 56.0673 219.671 56.3003 218.933 56.3003ZM218.889 52.2573C218.599 52.2573 218.374 52.3481 218.214 52.5297C218.055 52.7114 217.954 52.9575 217.913 53.268L219.86 53.268C219.84 52.937 219.739 52.6858 219.559 52.5144C219.379 52.343 219.155 52.2573 218.889 52.2573Z"/>
</g>
<g fill="#000000" opacity="1" stroke="none">
<path clip-path="url(#TextBounds_7)" d="M268.269 53.206L268.041 51.9535L267.812 53.206L267.03 56.9941L265.773 56.9941L263.936 50.5165L265.373 50.5165L266.23 54.2255L266.415 55.2582L266.604 54.2475L267.333 50.5165L268.762 50.5165L269.531 54.2255L269.728 55.2582L269.926 54.2651L270.792 50.5165L272.167 50.5165L270.344 56.9941L269.052 56.9941L268.269 53.206Z"/>
<path clip-path="url(#TextBounds_7)" d="M272.91 54.4409C273.159 54.2973 273.525 54.1948 274.009 54.1332L274.435 54.0805C274.666 54.0512 274.832 54.0146 274.932 53.9706C275.11 53.8945 275.2 53.7758 275.2 53.6147C275.2 53.4184 275.132 53.2829 274.995 53.2082C274.859 53.1335 274.659 53.0961 274.395 53.0961C274.1 53.0961 273.89 53.1694 273.767 53.3159C273.679 53.4243 273.621 53.5707 273.591 53.7553L272.383 53.7553C272.409 53.3364 272.526 52.9921 272.734 52.7226C273.065 52.3007 273.634 52.0898 274.439 52.0898C274.964 52.0898 275.43 52.1938 275.837 52.4018C276.244 52.6098 276.448 53.0024 276.448 53.5795L276.448 55.7768C276.448 55.9291 276.451 56.1137 276.456 56.3305C276.465 56.4946 276.49 56.6059 276.531 56.6645C276.572 56.7231 276.634 56.7714 276.716 56.8095L276.716 56.9941L275.353 56.9941C275.315 56.8974 275.289 56.8066 275.274 56.7216C275.26 56.6367 275.248 56.54 275.239 56.4316C275.066 56.6191 274.867 56.7787 274.642 56.9106C274.372 57.0659 274.067 57.1435 273.727 57.1435C273.294 57.1435 272.936 57.0197 272.653 56.7722C272.37 56.5246 272.229 56.1738 272.229 55.7197C272.229 55.1308 272.456 54.7045 272.91 54.4409ZM274.844 55.9965C275.069 55.8383 275.186 55.5497 275.195 55.1308L275.195 54.665C275.116 54.7148 275.036 54.7551 274.956 54.7858C274.875 54.8166 274.765 54.8452 274.624 54.8715L274.343 54.9243C274.079 54.9711 273.89 55.0283 273.776 55.0956C273.582 55.2099 273.486 55.3871 273.486 55.6274C273.486 55.8412 273.545 55.9958 273.664 56.091C273.782 56.1862 273.927 56.2338 274.097 56.2338C274.366 56.2338 274.615 56.1547 274.844 55.9965Z"/>
<path clip-path="url(#TextBounds_7)" d="M278.834 53.1533C278.717 53.2382 278.658 53.3378 278.658 53.4521C278.658 53.5956 278.72 53.6996 278.843 53.7641C278.966 53.8315 279.401 53.9472 280.148 54.1113C280.646 54.2285 281.019 54.4057 281.268 54.643C281.515 54.8832 281.638 55.1835 281.638 55.5439C281.638 56.0185 281.461 56.4059 281.108 56.7062C280.755 57.0065 280.209 57.1567 279.471 57.1567C278.718 57.1567 278.162 56.9977 277.803 56.6799C277.445 56.362 277.265 55.957 277.265 55.4648L278.535 55.4648C278.561 55.6874 278.619 55.8456 278.706 55.9394C278.862 56.1064 279.149 56.1899 279.568 56.1899C279.814 56.1899 280.009 56.1533 280.154 56.08C280.299 56.0068 280.372 55.8969 280.372 55.7504C280.372 55.6098 280.313 55.5029 280.196 55.4296C280.079 55.3564 279.644 55.2304 278.891 55.0517C278.349 54.9169 277.967 54.7485 277.744 54.5463C277.521 54.3471 277.41 54.06 277.41 53.685C277.41 53.2426 277.584 52.8625 277.931 52.5446C278.278 52.2267 278.767 52.0678 279.396 52.0678C279.994 52.0678 280.481 52.1872 280.858 52.426C281.234 52.6647 281.45 53.0771 281.506 53.663L280.253 53.663C280.236 53.5019 280.19 53.3744 280.117 53.2807C279.979 53.1108 279.745 53.0258 279.414 53.0258C279.142 53.0258 278.948 53.0683 278.834 53.1533Z"/>
<path clip-path="url(#TextBounds_7)" d="M285.483 53.4565C285.369 53.2338 285.152 53.1225 284.832 53.1225C284.501 53.1225 284.25 53.2331 284.079 53.4543C283.907 53.6755 283.822 53.9911 283.822 54.4013L283.822 56.9941L282.574 56.9941L282.574 50.5385L283.822 50.5385L283.822 52.8281C284.003 52.5497 284.214 52.3556 284.452 52.2458C284.691 52.1359 284.942 52.081 285.206 52.081C285.502 52.081 285.771 52.1323 286.012 52.2348C286.254 52.3373 286.453 52.4941 286.608 52.705C286.74 52.8837 286.82 53.0676 286.85 53.2565C286.879 53.4455 286.893 53.7538 286.893 54.1816L286.893 56.9941L285.615 56.9941L285.615 54.0805C285.615 53.8227 285.571 53.6147 285.483 53.4565Z"/>
<path clip-path="url(#TextBounds_7)" d="M287.685 53.8915L290.207 53.8915L290.207 55.0781L287.685 55.0781L287.685 53.8915Z"/>
<path clip-path="url(#TextBounds_7)" d="M295.054 52.8105C295.458 53.3173 295.661 53.9164 295.661 54.6078C295.661 55.311 295.458 55.9123 295.054 56.4118C294.65 56.9113 294.036 57.1611 293.213 57.1611C292.39 57.1611 291.776 56.9113 291.372 56.4118C290.967 55.9123 290.765 55.311 290.765 54.6078C290.765 53.9164 290.967 53.3173 291.372 52.8105C291.776 52.3036 292.39 52.0502 293.213 52.0502C294.036 52.0502 294.65 52.3036 295.054 52.8105ZM294.052 53.496C293.856 53.2382 293.575 53.1093 293.208 53.1093C292.842 53.1093 292.56 53.2389 292.362 53.4982C292.165 53.7575 292.066 54.1274 292.066 54.6078C292.066 55.0883 292.165 55.4589 292.362 55.7197C292.56 55.9804 292.842 56.1108 293.208 56.1108C293.575 56.1108 293.856 55.9804 294.052 55.7197C294.248 55.4589 294.347 55.0883 294.347 54.6078C294.347 54.1274 294.248 53.7568 294.052 53.496Z"/>
<path clip-path="url(#TextBounds_7)" d="M299.576 54.81L299.576 52.204L300.846 52.204L300.846 56.9941L299.629 56.9941L299.629 56.3173C299.617 56.332 299.588 56.3759 299.541 56.4492C299.494 56.5224 299.438 56.5869 299.374 56.6425C299.178 56.8183 298.988 56.9384 298.805 57.0029C298.622 57.0673 298.407 57.0995 298.161 57.0995C297.452 57.0995 296.975 56.8447 296.728 56.3349C296.591 56.0536 296.522 55.6391 296.522 55.0912L296.522 52.204L297.805 52.204L297.805 55.0912C297.805 55.3637 297.837 55.5688 297.902 55.7065C298.016 55.9496 298.24 56.0712 298.574 56.0712C299.002 56.0712 299.295 55.8984 299.453 55.5527C299.535 55.3652 299.576 55.1176 299.576 54.81Z"/>
<path clip-path="url(#TextBounds_7)" d="M303.544 56.0361C303.594 56.0859 303.747 56.1108 304.001 56.1108C304.039 56.1108 304.08 56.11 304.122 56.1086C304.165 56.1071 304.206 56.1049 304.247 56.102L304.247 57.038L303.654 57.06C303.062 57.0805 302.658 56.978 302.441 56.7524C302.301 56.6088 302.23 56.3876 302.23 56.0888L302.23 53.1401L301.562 53.1401L301.562 52.248L302.23 52.248L302.23 50.912L303.47 50.912L303.47 52.248L304.247 52.248L304.247 53.1401L303.47 53.1401L303.47 55.6713C303.47 55.8676 303.495 55.9892 303.544 56.0361Z"/>
</g>
<g fill="#000000" opacity="1" stroke="none">
<path clip-path="url(#TextBounds_8)" d="M346.984 51.0746C347.638 51.6694 347.964 52.56 347.964 53.7465C347.964 54.9096 347.638 55.8002 346.984 56.4184C346.495 56.9223 345.787 57.1743 344.862 57.1743C343.936 57.1743 343.228 56.9223 342.739 56.4184C342.083 55.8002 341.755 54.9096 341.755 53.7465C341.755 52.56 342.083 51.6694 342.739 51.0746C343.228 50.5707 343.936 50.3188 344.862 50.3188C345.787 50.3188 346.495 50.5707 346.984 51.0746ZM344.862 51.4658C344.326 51.4658 343.898 51.6635 343.578 52.059C343.259 52.4545 343.099 53.017 343.099 53.7465C343.099 54.476 343.259 55.0385 343.578 55.434C343.898 55.8295 344.326 56.0273 344.862 56.0273C345.398 56.0273 345.823 55.8295 346.138 55.434C346.453 55.0385 346.611 54.476 346.611 53.7465C346.611 53.02 346.453 52.4582 346.138 52.0612C345.823 51.6642 345.398 51.4658 344.862 51.4658Z"/>
<path clip-path="url(#TextBounds_8)" d="M350.544 56.8842C350.4 56.7905 350.245 56.6264 350.078 56.392L350.078 56.9941L348.852 56.9941L348.852 50.5253L350.1 50.5253L350.1 52.8281C350.258 52.6054 350.432 52.4355 350.623 52.3183C350.848 52.1718 351.136 52.0986 351.484 52.0986C352.114 52.0986 352.607 52.3256 352.963 52.7797C353.319 53.2338 353.497 53.8198 353.497 54.5375C353.497 55.2817 353.321 55.8984 352.97 56.3876C352.618 56.8769 352.127 57.1215 351.497 57.1215C351.102 57.1215 350.784 57.0424 350.544 56.8842ZM351.128 53.1928C350.674 53.1928 350.362 53.3994 350.192 53.8124C350.104 54.0322 350.06 54.3163 350.06 54.665C350.06 55.0751 350.151 55.415 350.333 55.6845C350.514 55.954 350.791 56.0888 351.163 56.0888C351.486 56.0888 351.736 55.9584 351.915 55.6977C352.094 55.4369 352.183 55.0942 352.183 54.6694C352.183 54.3295 352.139 54.0483 352.051 53.8256C351.884 53.4037 351.577 53.1928 351.128 53.1928Z"/>
<path clip-path="url(#TextBounds_8)" d="M355.668 53.1533C355.551 53.2382 355.492 53.3378 355.492 53.4521C355.492 53.5956 355.554 53.6996 355.677 53.7641C355.8 53.8315 356.235 53.9472 356.982 54.1113C357.48 54.2285 357.853 54.4057 358.102 54.643C358.348 54.8832 358.472 55.1835 358.472 55.5439C358.472 56.0185 358.295 56.4059 357.942 56.7062C357.589 57.0065 357.043 57.1567 356.305 57.1567C355.552 57.1567 354.996 56.9977 354.637 56.6799C354.278 56.362 354.099 55.957 354.099 55.4648L355.369 55.4648C355.395 55.6874 355.452 55.8456 355.54 55.9394C355.696 56.1064 355.983 56.1899 356.402 56.1899C356.648 56.1899 356.843 56.1533 356.988 56.08C357.133 56.0068 357.206 55.8969 357.206 55.7504C357.206 55.6098 357.147 55.5029 357.03 55.4296C356.913 55.3564 356.478 55.2304 355.725 55.0517C355.183 54.9169 354.801 54.7485 354.578 54.5463C354.355 54.3471 354.244 54.06 354.244 53.685C354.244 53.2426 354.418 52.8625 354.765 52.5446C355.112 52.2267 355.6 52.0678 356.23 52.0678C356.828 52.0678 357.315 52.1872 357.691 52.426C358.068 52.6647 358.284 53.0771 358.34 53.663L357.087 53.663C357.07 53.5019 357.024 53.3744 356.951 53.2807C356.813 53.1108 356.579 53.0258 356.248 53.0258C355.975 53.0258 355.782 53.0683 355.668 53.1533Z"/>
<path clip-path="url(#TextBounds_8)" d="M361.332 57.1523C360.723 57.1523 360.185 56.956 359.72 56.5634C359.254 56.1708 359.021 55.5322 359.021 54.6474C359.021 53.8183 359.231 53.1826 359.651 52.7402C360.072 52.2978 360.618 52.0766 361.288 52.0766C361.687 52.0766 362.046 52.1513 362.365 52.3007C362.684 52.4501 362.948 52.686 363.156 53.0082C363.344 53.2924 363.465 53.622 363.521 53.997C363.553 54.2167 363.566 54.5331 363.56 54.9462L360.282 54.9462C360.3 55.4267 360.451 55.7636 360.735 55.957C360.908 56.0771 361.116 56.1371 361.359 56.1371C361.617 56.1371 361.826 56.0639 361.987 55.9174C362.075 55.8383 362.153 55.7285 362.22 55.5878L363.499 55.5878C363.467 55.872 363.319 56.1606 363.055 56.4535C362.645 56.9194 362.071 57.1523 361.332 57.1523ZM361.288 53.1093C360.998 53.1093 360.774 53.2001 360.614 53.3818C360.454 53.5634 360.354 53.8095 360.313 54.1201L362.26 54.1201C362.239 53.789 362.139 53.5378 361.959 53.3664C361.778 53.195 361.555 53.1093 361.288 53.1093Z"/>
<path clip-path="url(#TextBounds_8)" d="M366.962 53.3642C366.9 53.3613 366.85 53.3598 366.812 53.3598C366.308 53.3598 365.97 53.5239 365.797 53.852C365.701 54.0366 365.652 54.3207 365.652 54.7045L365.652 56.9941L364.391 56.9941L364.391 52.204L365.586 52.204L365.586 53.039C365.78 52.7197 365.948 52.5014 366.092 52.3842C366.326 52.1879 366.631 52.0898 367.006 52.0898C367.029 52.0898 367.049 52.0905 367.065 52.092C367.081 52.0934 367.117 52.0956 367.173 52.0986L367.173 53.3818C367.094 53.373 367.023 53.3671 366.962 53.3642Z"/>
<path clip-path="url(#TextBounds_8)" d="M369.155 56.9941L367.436 52.204L368.843 52.204L369.84 55.7372L370.86 52.204L372.204 52.204L370.477 56.9941L369.155 56.9941Z"/>
<path clip-path="url(#TextBounds_8)" d="M373.268 54.4409C373.517 54.2973 373.883 54.1948 374.367 54.1332L374.793 54.0805C375.024 54.0512 375.19 54.0146 375.289 53.9706C375.468 53.8945 375.557 53.7758 375.557 53.6147C375.557 53.4184 375.489 53.2829 375.353 53.2082C375.217 53.1335 375.017 53.0961 374.753 53.0961C374.457 53.0961 374.248 53.1694 374.125 53.3159C374.037 53.4243 373.978 53.5707 373.949 53.7553L372.741 53.7553C372.767 53.3364 372.884 52.9921 373.092 52.7226C373.423 52.3007 373.992 52.0898 374.797 52.0898C375.322 52.0898 375.787 52.1938 376.195 52.4018C376.602 52.6098 376.806 53.0024 376.806 53.5795L376.806 55.7768C376.806 55.9291 376.808 56.1137 376.814 56.3305C376.823 56.4946 376.848 56.6059 376.889 56.6645C376.93 56.7231 376.992 56.7714 377.074 56.8095L377.074 56.9941L375.711 56.9941C375.673 56.8974 375.647 56.8066 375.632 56.7216C375.618 56.6367 375.606 56.54 375.597 56.4316C375.424 56.6191 375.225 56.7787 374.999 56.9106C374.73 57.0659 374.425 57.1435 374.085 57.1435C373.652 57.1435 373.294 57.0197 373.011 56.7722C372.728 56.5246 372.587 56.1738 372.587 55.7197C372.587 55.1308 372.814 54.7045 373.268 54.4409ZM375.202 55.9965C375.427 55.8383 375.544 55.5497 375.553 55.1308L375.553 54.665C375.474 54.7148 375.394 54.7551 375.314 54.7858C375.233 54.8166 375.122 54.8452 374.982 54.8715L374.701 54.9243C374.437 54.9711 374.248 55.0283 374.134 55.0956C373.94 55.2099 373.844 55.3871 373.844 55.6274C373.844 55.8412 373.903 55.9958 374.022 56.091C374.14 56.1862 374.285 56.2338 374.454 56.2338C374.724 56.2338 374.973 56.1547 375.202 55.9965Z"/>
<path clip-path="url(#TextBounds_8)" d="M379.407 56.0361C379.457 56.0859 379.609 56.1108 379.864 56.1108C379.902 56.1108 379.942 56.11 379.985 56.1086C380.027 56.1071 380.069 56.1049 380.11 56.102L380.11 57.038L379.517 57.06C378.925 57.0805 378.521 56.978 378.304 56.7524C378.163 56.6088 378.093 56.3876 378.093 56.0888L378.093 53.1401L377.425 53.1401L377.425 52.248L378.093 52.248L378.093 50.912L379.332 50.912L379.332 52.248L380.11 52.248L380.11 53.1401L379.332 53.1401L379.332 55.6713C379.332 55.8676 379.357 55.9892 379.407 56.0361Z"/>
<path clip-path="url(#TextBounds_8)" d="M382.202 52.204L382.202 56.9941L380.932 56.9941L380.932 52.204L382.202 52.204ZM382.202 50.477L382.202 51.6327L380.932 51.6327L380.932 50.477L382.202 50.477Z"/>
<path clip-path="url(#TextBounds_8)" d="M387.41 52.8105C387.814 53.3173 388.016 53.9164 388.016 54.6078C388.016 55.311 387.814 55.9123 387.41 56.4118C387.005 56.9113 386.391 57.1611 385.568 57.1611C384.745 57.1611 384.131 56.9113 383.727 56.4118C383.323 55.9123 383.12 55.311 383.12 54.6078C383.12 53.9164 383.323 53.3173 383.727 52.8105C384.131 52.3036 384.745 52.0502 385.568 52.0502C386.391 52.0502 387.005 52.3036 387.41 52.8105ZM386.408 53.496C386.211 53.2382 385.93 53.1093 385.564 53.1093C385.198 53.1093 384.916 53.2389 384.718 53.4982C384.52 53.7575 384.421 54.1274 384.421 54.6078C384.421 55.0883 384.52 55.4589 384.718 55.7197C384.916 55.9804 385.198 56.1108 385.564 56.1108C385.93 56.1108 386.211 55.9804 386.408 55.7197C386.604 55.4589 386.702 55.0883 386.702 54.6078C386.702 54.1274 386.604 53.7568 386.408 53.496Z"/>
<path clip-path="url(#TextBounds_8)" d="M392.784 52.4765C393.098 52.7372 393.254 53.1679 393.254 53.7685L393.254 56.9941L391.971 56.9941L391.971 54.0805C391.971 53.8285 391.937 53.6352 391.87 53.5004C391.747 53.2543 391.513 53.1313 391.167 53.1313C390.742 53.1313 390.451 53.3115 390.292 53.6718C390.21 53.8622 390.169 54.1054 390.169 54.4013L390.169 56.9941L388.921 56.9941L388.921 52.2128L390.13 52.2128L390.13 52.9116C390.291 52.6655 390.443 52.4882 390.587 52.3798C390.845 52.1865 391.171 52.0898 391.567 52.0898C392.062 52.0898 392.468 52.2187 392.784 52.4765Z"/>
</g>
</g>
<g opacity="1">
<path d="M422.486 42.525L432.809 53.5895" fill="none" opacity="1" stroke="#d5694f" stroke-linecap="round" stroke-linejoin="round" stroke-width="7"/>
<path d="M432.809 53.7941L422.486 64.8587L422.486 42.525L432.809 53.7941Z" fill="none" opacity="1" stroke="#d5694f" stroke-linecap="round" stroke-linejoin="round" stroke-width="7"/>
</g>
</g>
<g id="Endpoint-Free" vectornator:layerName="Endpoint Free">
<g fill="#000000" opacity="1" stroke="none">
<path clip-path="url(#TextBounds_9)" d="M129.431 87.5554L129.431 88.72L124.523 88.72L124.523 82.2424L129.273 82.2424L129.273 83.3894L125.845 83.3894L125.845 84.7649L128.992 84.7649L128.992 85.8899L125.845 85.8899L125.845 87.5554L129.431 87.5554Z"/>
<path clip-path="url(#TextBounds_9)" d="M134.257 84.2024C134.57 84.4631 134.727 84.8938 134.727 85.4944L134.727 88.72L133.444 88.72L133.444 85.8064C133.444 85.5544 133.41 85.3611 133.342 85.2263C133.219 84.9802 132.985 84.8572 132.639 84.8572C132.215 84.8572 131.923 85.0373 131.765 85.3977C131.683 85.5881 131.642 85.8313 131.642 86.1272L131.642 88.72L130.394 88.72L130.394 83.9387L131.602 83.9387L131.602 84.6374C131.763 84.3913 131.916 84.2141 132.059 84.1057C132.317 83.9123 132.644 83.8157 133.039 83.8157C133.534 83.8157 133.94 83.9446 134.257 84.2024Z"/>
<path clip-path="url(#TextBounds_9)" d="M138.414 88.676C138.185 88.8049 137.901 88.8694 137.561 88.8694C137.002 88.8694 136.531 88.6431 136.148 88.1904C135.766 87.7378 135.575 87.157 135.575 86.448C135.575 85.6306 135.763 84.9875 136.14 84.5188C136.516 84.05 137.019 83.8157 137.649 83.8157C137.939 83.8157 138.197 83.8794 138.423 84.0068C138.648 84.1343 138.831 84.3108 138.972 84.5364L138.972 82.2512L140.242 82.2512L140.242 88.72L139.025 88.72L139.025 88.0564C138.846 88.3406 138.642 88.5471 138.414 88.676ZM137.93 84.9099C137.564 84.9099 137.295 85.0483 137.124 85.3252C136.953 85.602 136.867 85.9455 136.867 86.3557C136.867 86.7981 136.954 87.1518 137.128 87.417C137.303 87.6821 137.567 87.8147 137.922 87.8147C138.276 87.8147 138.546 87.6828 138.73 87.4192C138.915 87.1555 139.007 86.8142 139.007 86.3953C139.007 85.8093 138.859 85.3904 138.563 85.1384C138.382 84.9861 138.171 84.9099 137.93 84.9099Z"/>
<path clip-path="url(#TextBounds_9)" d="M142.988 88.5705C142.851 88.4651 142.716 88.3113 142.584 88.1091L142.584 90.6052L141.345 90.6052L141.345 83.9299L142.545 83.9299L142.545 84.6374C142.679 84.4294 142.823 84.2654 142.975 84.1453C143.254 83.9314 143.585 83.8245 143.968 83.8245C144.528 83.8245 145.002 84.031 145.39 84.4441C145.778 84.8572 145.972 85.4636 145.972 86.2634C145.972 87.1072 145.783 87.7502 145.403 88.1926C145.024 88.635 144.535 88.8562 143.938 88.8562C143.557 88.8562 143.24 88.761 142.988 88.5705ZM143.608 87.8059C143.957 87.8059 144.223 87.6711 144.406 87.4016C144.589 87.1321 144.68 86.7732 144.68 86.3249C144.68 85.9558 144.596 85.6291 144.428 85.345C144.259 85.0608 143.986 84.9187 143.608 84.9187C143.154 84.9187 142.842 85.134 142.672 85.5647C142.584 85.7932 142.54 86.0832 142.54 86.4348C142.54 86.9914 142.688 87.3826 142.984 87.6081C143.16 87.74 143.368 87.8059 143.608 87.8059Z"/>
<path clip-path="url(#TextBounds_9)" d="M150.872 84.5364C151.277 85.0432 151.479 85.6423 151.479 86.3337C151.479 87.0369 151.277 87.6382 150.872 88.1377C150.468 88.6372 149.854 88.887 149.031 88.887C148.208 88.887 147.594 88.6372 147.19 88.1377C146.785 87.6382 146.583 87.0369 146.583 86.3337C146.583 85.6423 146.785 85.0432 147.19 84.5364C147.594 84.0295 148.208 83.7761 149.031 83.7761C149.854 83.7761 150.468 84.0295 150.872 84.5364ZM149.87 85.2219C149.674 84.9641 149.393 84.8352 149.027 84.8352C148.66 84.8352 148.378 84.9648 148.181 85.2241C147.983 85.4834 147.884 85.8533 147.884 86.3337C147.884 86.8142 147.983 87.1848 148.181 87.4455C148.378 87.7063 148.66 87.8367 149.027 87.8367C149.393 87.8367 149.674 87.7063 149.87 87.4455C150.067 87.1848 150.165 86.8142 150.165 86.3337C150.165 85.8533 150.067 85.4827 149.87 85.2219Z"/>
<path clip-path="url(#TextBounds_9)" d="M153.663 83.9299L153.663 88.72L152.393 88.72L152.393 83.9299L153.663 83.9299ZM153.663 82.2029L153.663 83.3586L152.393 83.3586L152.393 82.2029L153.663 82.2029Z"/>
<path clip-path="url(#TextBounds_9)" d="M158.747 84.2024C159.061 84.4631 159.217 84.8938 159.217 85.4944L159.217 88.72L157.934 88.72L157.934 85.8064C157.934 85.5544 157.901 85.3611 157.833 85.2263C157.71 84.9802 157.476 84.8572 157.13 84.8572C156.705 84.8572 156.414 85.0373 156.256 85.3977C156.174 85.5881 156.133 85.8313 156.133 86.1272L156.133 88.72L154.884 88.72L154.884 83.9387L156.093 83.9387L156.093 84.6374C156.254 84.3913 156.406 84.2141 156.55 84.1057C156.808 83.9123 157.134 83.8157 157.53 83.8157C158.025 83.8157 158.431 83.9446 158.747 84.2024Z"/>
<path clip-path="url(#TextBounds_9)" d="M161.863 87.762C161.913 87.8118 162.065 87.8367 162.32 87.8367C162.358 87.8367 162.398 87.8359 162.441 87.8345C162.483 87.833 162.525 87.8308 162.566 87.8279L162.566 88.7639L161.973 88.7859C161.381 88.8064 160.977 88.7038 160.76 88.4783C160.619 88.3347 160.549 88.1135 160.549 87.8147L160.549 84.866L159.881 84.866L159.881 83.9739L160.549 83.9739L160.549 82.6379L161.788 82.6379L161.788 83.9739L162.566 83.9739L162.566 84.866L161.788 84.866L161.788 87.3972C161.788 87.5935 161.813 87.7151 161.863 87.762Z"/>
<path clip-path="url(#TextBounds_9)" d="M167.317 83.3894L167.317 84.8791L170.16 84.8791L170.16 86.0041L167.317 86.0041L167.317 88.72L165.972 88.72L165.972 82.2512L170.564 82.2512L170.564 83.3894L167.317 83.3894Z"/>
<path clip-path="url(#TextBounds_9)" d="M173.926 85.0901C173.864 85.0871 173.815 85.0857 173.777 85.0857C173.273 85.0857 172.934 85.2497 172.761 85.5779C172.665 85.7624 172.616 86.0466 172.616 86.4304L172.616 88.72L171.355 88.72L171.355 83.9299L172.55 83.9299L172.55 84.7649C172.744 84.4455 172.912 84.2273 173.056 84.1101C173.29 83.9138 173.595 83.8157 173.97 83.8157C173.993 83.8157 174.013 83.8164 174.029 83.8179C174.045 83.8193 174.081 83.8215 174.137 83.8245L174.137 85.1077C174.058 85.0989 173.987 85.093 173.926 85.0901Z"/>
<path clip-path="url(#TextBounds_9)" d="M176.804 88.8782C176.195 88.8782 175.657 88.6819 175.192 88.2893C174.726 87.8967 174.493 87.258 174.493 86.3733C174.493 85.5442 174.703 84.9084 175.123 84.4661C175.544 84.0237 176.09 83.8025 176.76 83.8025C177.159 83.8025 177.518 83.8772 177.837 84.0266C178.156 84.176 178.42 84.4119 178.628 84.7341C178.816 85.0183 178.937 85.3479 178.993 85.7229C179.025 85.9426 179.038 86.259 179.032 86.6721L175.754 86.6721C175.772 87.1526 175.923 87.4895 176.207 87.6828C176.38 87.803 176.588 87.863 176.831 87.863C177.089 87.863 177.298 87.7898 177.459 87.6433C177.547 87.5642 177.625 87.4543 177.692 87.3137L178.971 87.3137C178.939 87.5979 178.791 87.8865 178.527 88.1794C178.117 88.6453 177.543 88.8782 176.804 88.8782ZM176.76 84.8352C176.47 84.8352 176.246 84.926 176.086 85.1077C175.926 85.2893 175.826 85.5354 175.785 85.8459L177.732 85.8459C177.711 85.5149 177.611 85.2637 177.431 85.0923C177.25 84.9209 177.027 84.8352 176.76 84.8352Z"/>
<path clip-path="url(#TextBounds_9)" d="M181.81 88.8782C181.2 88.8782 180.663 88.6819 180.197 88.2893C179.731 87.8967 179.498 87.258 179.498 86.3733C179.498 85.5442 179.708 84.9084 180.129 84.4661C180.549 84.0237 181.095 83.8025 181.766 83.8025C182.164 83.8025 182.523 83.8772 182.842 84.0266C183.162 84.176 183.425 84.4119 183.633 84.7341C183.821 85.0183 183.943 85.3479 183.998 85.7229C184.03 85.9426 184.044 86.259 184.038 86.6721L180.759 86.6721C180.777 87.1526 180.928 87.4895 181.212 87.6828C181.385 87.803 181.593 87.863 181.836 87.863C182.094 87.863 182.303 87.7898 182.465 87.6433C182.552 87.5642 182.63 87.4543 182.697 87.3137L183.976 87.3137C183.944 87.5979 183.796 87.8865 183.532 88.1794C183.122 88.6453 182.548 88.8782 181.81 88.8782ZM181.766 84.8352C181.476 84.8352 181.251 84.926 181.091 85.1077C180.932 85.2893 180.831 85.5354 180.79 85.8459L182.737 85.8459C182.717 85.5149 182.616 85.2637 182.436 85.0923C182.256 84.9209 182.032 84.8352 181.766 84.8352Z"/>
<path clip-path="url(#TextBounds_9)" d="M186.943 82.2424L192.19 82.2424L192.19 83.3894L190.252 83.3894L190.252 88.72L188.889 88.72L188.889 83.3894L186.943 83.3894L186.943 82.2424Z"/>
<path clip-path="url(#TextBounds_9)" d="M194.009 83.9299L194.009 88.72L192.739 88.72L192.739 83.9299L194.009 83.9299ZM194.009 82.2029L194.009 83.3586L192.739 83.3586L192.739 82.2029L194.009 82.2029Z"/>
<path clip-path="url(#TextBounds_9)" d="M197.911 85.2483C197.806 85.0168 197.599 84.9011 197.292 84.9011C196.934 84.9011 196.694 85.0168 196.571 85.2483C196.504 85.3801 196.47 85.5764 196.47 85.8371L196.47 88.72L195.2 88.72L195.2 83.9387L196.417 83.9387L196.417 84.6374C196.572 84.3884 196.719 84.2112 196.857 84.1057C197.1 83.9182 197.415 83.8245 197.801 83.8245C198.168 83.8245 198.464 83.905 198.689 84.0662C198.871 84.2156 199.008 84.4075 199.102 84.6418C199.266 84.3606 199.47 84.154 199.713 84.0222C199.971 83.8904 200.258 83.8245 200.574 83.8245C200.785 83.8245 200.993 83.8655 201.198 83.9475C201.404 84.0295 201.59 84.1731 201.757 84.3782C201.891 84.5452 201.982 84.7502 202.029 84.9934C202.058 85.1545 202.073 85.3904 202.073 85.7009L202.064 88.72L200.781 88.72L200.781 85.6702C200.781 85.4885 200.752 85.3391 200.693 85.2219C200.582 84.9993 200.377 84.8879 200.078 84.8879C199.732 84.8879 199.493 85.0315 199.362 85.3186C199.294 85.4709 199.26 85.654 199.26 85.8679L199.26 88.72L197.999 88.72L197.999 85.8679C197.999 85.5837 197.97 85.3772 197.911 85.2483Z"/>
<path clip-path="url(#TextBounds_9)" d="M205.158 88.8782C204.549 88.8782 204.011 88.6819 203.545 88.2893C203.079 87.8967 202.846 87.258 202.846 86.3733C202.846 85.5442 203.057 84.9084 203.477 84.4661C203.897 84.0237 204.443 83.8025 205.114 83.8025C205.512 83.8025 205.871 83.8772 206.191 84.0266C206.51 84.176 206.774 84.4119 206.982 84.7341C207.169 85.0183 207.291 85.3479 207.346 85.7229C207.379 85.9426 207.392 86.259 207.386 86.6721L204.108 86.6721C204.125 87.1526 204.276 87.4895 204.56 87.6828C204.733 87.803 204.941 87.863 205.184 87.863C205.442 87.863 205.652 87.7898 205.813 87.6433C205.901 87.5642 205.978 87.4543 206.046 87.3137L207.324 87.3137C207.292 87.5979 207.144 87.8865 206.881 88.1794C206.47 88.6453 205.896 88.8782 205.158 88.8782ZM205.114 84.8352C204.824 84.8352 204.599 84.926 204.439 85.1077C204.28 85.2893 204.179 85.5354 204.138 85.8459L206.085 85.8459C206.065 85.5149 205.964 85.2637 205.784 85.0923C205.604 84.9209 205.381 84.8352 205.114 84.8352Z"/>
</g>
<g opacity="1">
<g opacity="1">
<path d="M307.924 25.5164C307.924 28.8477 307.922 67.2286 307.922 67.2286" fill="none" stroke="#c0cad8" stroke-linecap="square" stroke-linejoin="bevel" stroke-width="2"/>
<g fill="#c0cad8" stroke="none">
<path d="M313.924 26.0167L313.924 24.0167L301.924 24.0161L301.924 26.0161L313.924 26.0167Z" fill="#c0cad8"/>
</g>
</g>
<g fill="#000000" opacity="1" stroke="none">
<path clip-path="url(#TextBounds_10)" d="M293.058 20.4423L290.122 20.4423L290.122 13.9648L293.269 13.9648C294.063 13.9765 294.625 14.2065 294.956 14.6547C295.155 14.9301 295.255 15.2597 295.255 15.6435C295.255 16.039 295.155 16.3569 294.956 16.5971C294.845 16.7319 294.681 16.8549 294.464 16.9663C294.795 17.0864 295.045 17.2768 295.213 17.5375C295.382 17.7983 295.466 18.1147 295.466 18.4868C295.466 18.8705 295.369 19.2148 295.176 19.5195C295.053 19.7216 294.899 19.8915 294.714 20.0292C294.506 20.1874 294.261 20.2958 293.978 20.3544C293.696 20.413 293.389 20.4423 293.058 20.4423ZM293.669 19.2031C293.956 19.0624 294.099 18.7929 294.099 18.3945C294.099 18.0576 293.96 17.8261 293.682 17.7001C293.526 17.6298 293.308 17.5932 293.027 17.5903L291.414 17.5903L291.414 19.3173L293.005 19.3173C293.289 19.3173 293.51 19.2792 293.669 19.2031ZM293.611 15.1909C293.409 15.1235 293.151 15.0898 292.838 15.0898L291.414 15.0898L291.414 16.518L293.005 16.518C293.289 16.518 293.52 16.4645 293.697 16.3576C293.874 16.2507 293.963 16.061 293.963 15.7885C293.963 15.4868 293.846 15.2875 293.611 15.1909Z"/>
<path clip-path="url(#TextBounds_10)" d="M296.855 17.8891C297.104 17.7455 297.47 17.643 297.953 17.5815L298.379 17.5288C298.611 17.4995 298.776 17.4628 298.876 17.4189C299.055 17.3427 299.144 17.2241 299.144 17.0629C299.144 16.8666 299.076 16.7311 298.94 16.6564C298.804 16.5817 298.604 16.5444 298.34 16.5444C298.044 16.5444 297.835 16.6176 297.711 16.7641C297.624 16.8725 297.565 17.019 297.536 17.2036L296.327 17.2036C296.354 16.7846 296.471 16.4404 296.679 16.1708C297.01 15.749 297.578 15.538 298.384 15.538C298.908 15.538 299.374 15.642 299.781 15.85C300.189 16.058 300.392 16.4506 300.392 17.0278L300.392 19.225C300.392 19.3774 300.395 19.562 300.401 19.7788C300.41 19.9428 300.435 20.0541 300.476 20.1127C300.517 20.1713 300.578 20.2197 300.66 20.2578L300.66 20.4423L299.298 20.4423C299.26 20.3456 299.233 20.2548 299.219 20.1699C299.204 20.0849 299.192 19.9882 299.184 19.8798C299.011 20.0673 298.812 20.227 298.586 20.3588C298.316 20.5141 298.012 20.5917 297.672 20.5917C297.238 20.5917 296.88 20.468 296.597 20.2204C296.315 19.9728 296.173 19.622 296.173 19.1679C296.173 18.579 296.4 18.1528 296.855 17.8891ZM298.788 19.4448C299.014 19.2866 299.131 18.998 299.14 18.579L299.14 18.1132C299.061 18.163 298.981 18.2033 298.9 18.2341C298.82 18.2648 298.709 18.2934 298.568 18.3198L298.287 18.3725C298.023 18.4194 297.835 18.4765 297.72 18.5439C297.527 18.6581 297.43 18.8354 297.43 19.0756C297.43 19.2895 297.49 19.444 297.608 19.5392C297.727 19.6345 297.871 19.6821 298.041 19.6821C298.311 19.6821 298.56 19.603 298.788 19.4448Z"/>
<path clip-path="url(#TextBounds_10)" d="M302.778 16.6015C302.661 16.6865 302.603 16.7861 302.603 16.9003C302.603 17.0439 302.664 17.1479 302.787 17.2123C302.91 17.2797 303.345 17.3955 304.092 17.5595C304.59 17.6767 304.964 17.8539 305.213 18.0913C305.459 18.3315 305.582 18.6318 305.582 18.9921C305.582 19.4667 305.406 19.8542 305.053 20.1545C304.7 20.4548 304.154 20.6049 303.416 20.6049C302.663 20.6049 302.107 20.446 301.748 20.1281C301.389 19.8102 301.21 19.4052 301.21 18.913L302.48 18.913C302.506 19.1357 302.563 19.2939 302.651 19.3876C302.806 19.5546 303.093 19.6381 303.512 19.6381C303.758 19.6381 303.954 19.6015 304.099 19.5283C304.244 19.455 304.316 19.3452 304.316 19.1987C304.316 19.058 304.258 18.9511 304.141 18.8779C304.023 18.8046 303.588 18.6787 302.836 18.4999C302.294 18.3652 301.911 18.1967 301.689 17.9946C301.466 17.7954 301.355 17.5082 301.355 17.1332C301.355 16.6909 301.528 16.3107 301.875 15.9929C302.222 15.675 302.711 15.5161 303.341 15.5161C303.939 15.5161 304.426 15.6354 304.802 15.8742C305.179 16.113 305.395 16.5253 305.45 17.1113L304.198 17.1113C304.18 16.9501 304.135 16.8227 304.062 16.7289C303.924 16.559 303.69 16.4741 303.358 16.4741C303.086 16.4741 302.893 16.5165 302.778 16.6015Z"/>
<path clip-path="url(#TextBounds_10)" d="M308.443 20.6005C307.834 20.6005 307.296 20.4042 306.83 20.0117C306.364 19.6191 306.131 18.9804 306.131 18.0956C306.131 17.2665 306.342 16.6308 306.762 16.1884C307.182 15.746 307.728 15.5248 308.399 15.5248C308.797 15.5248 309.156 15.5996 309.476 15.749C309.795 15.8984 310.059 16.1342 310.267 16.4565C310.454 16.7407 310.576 17.0703 310.631 17.4453C310.664 17.665 310.677 17.9814 310.671 18.3945L307.393 18.3945C307.41 18.8749 307.561 19.2119 307.845 19.4052C308.018 19.5253 308.226 19.5854 308.469 19.5854C308.727 19.5854 308.937 19.5122 309.098 19.3657C309.186 19.2866 309.263 19.1767 309.331 19.0361L310.609 19.0361C310.577 19.3203 310.429 19.6088 310.166 19.9018C309.755 20.3676 309.181 20.6005 308.443 20.6005ZM308.399 16.5576C308.109 16.5576 307.884 16.6484 307.724 16.83C307.565 17.0117 307.464 17.2578 307.423 17.5683L309.37 17.5683C309.35 17.2372 309.249 16.986 309.069 16.8146C308.889 16.6433 308.666 16.5576 308.399 16.5576Z"/>
<path clip-path="url(#TextBounds_10)" d="M311.541 13.9648L312.794 13.9648L312.794 20.4423L311.541 20.4423L311.541 13.9648Z"/>
<path clip-path="url(#TextBounds_10)" d="M315.303 15.6523L315.303 20.4423L314.033 20.4423L314.033 15.6523L315.303 15.6523ZM315.303 13.9252L315.303 15.081L314.033 15.081L314.033 13.9252L315.303 13.9252Z"/>
<path clip-path="url(#TextBounds_10)" d="M320.387 15.9247C320.701 16.1855 320.857 16.6162 320.857 17.2167L320.857 20.4423L319.574 20.4423L319.574 17.5288C319.574 17.2768 319.541 17.0834 319.473 16.9487C319.35 16.7026 319.116 16.5795 318.77 16.5795C318.345 16.5795 318.054 16.7597 317.896 17.1201C317.814 17.3105 317.773 17.5537 317.773 17.8496L317.773 20.4423L316.524 20.4423L316.524 15.6611L317.733 15.6611L317.733 16.3598C317.894 16.1137 318.046 15.9365 318.19 15.8281C318.448 15.6347 318.774 15.538 319.17 15.538C319.665 15.538 320.071 15.6669 320.387 15.9247Z"/>
<path clip-path="url(#TextBounds_10)" d="M323.947 20.6005C323.337 20.6005 322.8 20.4042 322.334 20.0117C321.868 19.6191 321.635 18.9804 321.635 18.0956C321.635 17.2665 321.846 16.6308 322.266 16.1884C322.686 15.746 323.232 15.5248 323.903 15.5248C324.301 15.5248 324.66 15.5996 324.98 15.749C325.299 15.8984 325.563 16.1342 325.771 16.4565C325.958 16.7407 326.08 17.0703 326.135 17.4453C326.168 17.665 326.181 17.9814 326.175 18.3945L322.897 18.3945C322.914 18.8749 323.065 19.2119 323.349 19.4052C323.522 19.5253 323.73 19.5854 323.973 19.5854C324.231 19.5854 324.44 19.5122 324.602 19.3657C324.69 19.2866 324.767 19.1767 324.835 19.0361L326.113 19.0361C326.081 19.3203 325.933 19.6088 325.669 19.9018C325.259 20.3676 324.685 20.6005 323.947 20.6005ZM323.903 16.5576C323.613 16.5576 323.388 16.6484 323.228 16.83C323.069 17.0117 322.968 17.2578 322.927 17.5683L324.874 17.5683C324.854 17.2372 324.753 16.986 324.573 16.8146C324.393 16.6433 324.169 16.5576 323.903 16.5576Z"/>
</g>
</g>
<g opacity="1">
<g opacity="1">
<path d="M23.5191 25.5164C23.519 28.8477 23.5171 67.2286 23.5171 67.2286" fill="none" stroke="#c0cad8" stroke-linecap="square" stroke-linejoin="bevel" stroke-width="2"/>
<g fill="#c0cad8" stroke="none">
<path d="M29.5191 26.0167L29.5192 24.0167L17.5192 24.0161L17.5191 26.0161L29.5191 26.0167Z" fill="#c0cad8"/>
</g>
</g>
<g fill="#000000" opacity="1" stroke="none">
<path clip-path="url(#TextBounds_11)" d="M7.41107 20.4423L4.47552 20.4423L4.47552 13.9648L7.622 13.9648C8.41595 13.9765 8.97845 14.2065 9.3095 14.6547C9.50872 14.9301 9.60833 15.2597 9.60833 15.6435C9.60833 16.039 9.50872 16.3569 9.3095 16.5971C9.19818 16.7319 9.03411 16.8549 8.81732 16.9663C9.14837 17.0864 9.39813 17.2768 9.56658 17.5375C9.73504 17.7983 9.81927 18.1147 9.81927 18.4868C9.81927 18.8705 9.72259 19.2148 9.52923 19.5195C9.40618 19.7216 9.25238 19.8915 9.0678 20.0292C8.8598 20.1874 8.61444 20.2958 8.33172 20.3544C8.04901 20.413 7.74212 20.4423 7.41107 20.4423ZM8.02191 19.2031C8.30902 19.0624 8.45257 18.7929 8.45257 18.3945C8.45257 18.0576 8.31341 17.8261 8.03509 17.7001C7.87982 17.6298 7.66155 17.5932 7.3803 17.5903L5.76751 17.5903L5.76751 19.3173L7.35833 19.3173C7.64251 19.3173 7.8637 19.2792 8.02191 19.2031ZM7.96478 15.1909C7.76263 15.1235 7.50482 15.0898 7.19134 15.0898L5.76751 15.0898L5.76751 16.518L7.35833 16.518C7.64251 16.518 7.87322 16.4645 8.05047 16.3576C8.22772 16.2507 8.31634 16.061 8.31634 15.7885C8.31634 15.4868 8.19915 15.2875 7.96478 15.1909Z"/>
<path clip-path="url(#TextBounds_11)" d="M12.1396 15.6523L12.1396 20.4423L10.8696 20.4423L10.8696 15.6523L12.1396 15.6523ZM12.1396 13.9252L12.1396 15.081L10.8696 15.081L10.8696 13.9252L12.1396 13.9252Z"/>
<path clip-path="url(#TextBounds_11)" d="M15.9101 16.8124C15.8486 16.8095 15.7988 16.808 15.7607 16.808C15.2568 16.808 14.9184 16.9721 14.7455 17.3002C14.6489 17.4848 14.6005 17.769 14.6005 18.1528L14.6005 20.4423L13.3393 20.4423L13.3393 15.6523L14.5346 15.6523L14.5346 16.4872C14.728 16.1679 14.8964 15.9497 15.04 15.8325C15.2743 15.6362 15.579 15.538 15.954 15.538C15.9775 15.538 15.9972 15.5388 16.0134 15.5402C16.0295 15.5417 16.0654 15.5439 16.121 15.5468L16.121 16.83C16.0419 16.8212 15.9716 16.8154 15.9101 16.8124Z"/>
<path clip-path="url(#TextBounds_11)" d="M18.3447 19.4843C18.3945 19.5341 18.5468 19.559 18.8017 19.559C18.8398 19.559 18.8801 19.5583 18.9225 19.5568C18.965 19.5554 19.0068 19.5532 19.0478 19.5502L19.0478 20.4863L18.4545 20.5082C17.8627 20.5288 17.4584 20.4262 17.2416 20.2006C17.101 20.0571 17.0307 19.8359 17.0307 19.5371L17.0307 16.5883L16.3627 16.5883L16.3627 15.6962L17.0307 15.6962L17.0307 14.3603L18.27 14.3603L18.27 15.6962L19.0478 15.6962L19.0478 16.5883L18.27 16.5883L18.27 19.1196C18.27 19.3159 18.2949 19.4374 18.3447 19.4843Z"/>
<path clip-path="url(#TextBounds_11)" d="M22.77 16.9047C22.6557 16.6821 22.4389 16.5707 22.1196 16.5707C21.7885 16.5707 21.5373 16.6813 21.3659 16.9025C21.1945 17.1237 21.1088 17.4394 21.1088 17.8496L21.1088 20.4423L19.8608 20.4423L19.8608 13.9868L21.1088 13.9868L21.1088 16.2763C21.2905 15.998 21.5007 15.8039 21.7394 15.694C21.9782 15.5842 22.2294 15.5292 22.4931 15.5292C22.789 15.5292 23.0578 15.5805 23.2995 15.683C23.5412 15.7856 23.7397 15.9423 23.895 16.1533C24.0268 16.332 24.1074 16.5158 24.1367 16.7048C24.1659 16.8937 24.1806 17.2021 24.1806 17.6298L24.1806 20.4423L22.9018 20.4423L22.9018 17.5288C22.9018 17.2709 22.8578 17.0629 22.77 16.9047Z"/>
<path clip-path="url(#TextBounds_11)" d="M27.8808 20.3984C27.6523 20.5273 27.3681 20.5917 27.0283 20.5917C26.4687 20.5917 25.9977 20.3654 25.6154 19.9128C25.2331 19.4601 25.0419 18.8793 25.0419 18.1704C25.0419 17.353 25.2302 16.7099 25.6066 16.2412C25.9831 15.7724 26.4863 15.538 27.1161 15.538C27.4062 15.538 27.664 15.6017 27.8896 15.7292C28.1152 15.8566 28.2983 16.0331 28.4389 16.2587L28.4389 13.9736L29.7089 13.9736L29.7089 20.4423L28.4916 20.4423L28.4916 19.7788C28.3129 20.0629 28.1093 20.2695 27.8808 20.3984ZM27.3974 16.6323C27.0312 16.6323 26.7624 16.7707 26.591 17.0476C26.4196 17.3244 26.3339 17.6679 26.3339 18.0781C26.3339 18.5205 26.4211 18.8742 26.5954 19.1393C26.7697 19.4045 27.0341 19.5371 27.3886 19.5371C27.7431 19.5371 28.0126 19.4052 28.1972 19.1415C28.3818 18.8779 28.4741 18.5366 28.4741 18.1176C28.4741 17.5317 28.3261 17.1127 28.0302 16.8608C27.8486 16.7084 27.6376 16.6323 27.3974 16.6323Z"/>
<path clip-path="url(#TextBounds_11)" d="M31.2031 17.8891C31.4521 17.7455 31.8183 17.643 32.3017 17.5815L32.728 17.5288C32.9594 17.4995 33.1249 17.4628 33.2245 17.4189C33.4033 17.3427 33.4926 17.2241 33.4926 17.0629C33.4926 16.8666 33.4245 16.7311 33.2883 16.6564C33.152 16.5817 32.9521 16.5444 32.6884 16.5444C32.3925 16.5444 32.183 16.6176 32.06 16.7641C31.9721 16.8725 31.9135 17.019 31.8842 17.2036L30.6757 17.2036C30.7021 16.7846 30.8193 16.4404 31.0273 16.1708C31.3583 15.749 31.9267 15.538 32.7324 15.538C33.2568 15.538 33.7226 15.642 34.1298 15.85C34.537 16.058 34.7407 16.4506 34.7407 17.0278L34.7407 19.225C34.7407 19.3774 34.7436 19.562 34.7494 19.7788C34.7582 19.9428 34.7831 20.0541 34.8242 20.1127C34.8652 20.1713 34.9267 20.2197 35.0087 20.2578L35.0087 20.4423L33.6464 20.4423C33.6083 20.3456 33.582 20.2548 33.5673 20.1699C33.5527 20.0849 33.5409 19.9882 33.5322 19.8798C33.3593 20.0673 33.1601 20.227 32.9345 20.3588C32.665 20.5141 32.3603 20.5917 32.0204 20.5917C31.5868 20.5917 31.2287 20.468 30.946 20.2204C30.6633 19.9728 30.5219 19.622 30.5219 19.1679C30.5219 18.579 30.749 18.1528 31.2031 17.8891ZM33.1367 19.4448C33.3622 19.2866 33.4794 18.998 33.4882 18.579L33.4882 18.1132C33.4091 18.163 33.3293 18.2033 33.2487 18.2341C33.1681 18.2648 33.0576 18.2934 32.9169 18.3198L32.6357 18.3725C32.372 18.4194 32.183 18.4765 32.0688 18.5439C31.8754 18.6581 31.7787 18.8354 31.7787 19.0756C31.7787 19.2895 31.8381 19.444 31.9567 19.5392C32.0754 19.6345 32.2197 19.6821 32.3896 19.6821C32.6591 19.6821 32.9081 19.603 33.1367 19.4448Z"/>
<path clip-path="url(#TextBounds_11)" d="M37.3422 19.4843C37.392 19.5341 37.5444 19.559 37.7993 19.559C37.8373 19.559 37.8776 19.5583 37.9201 19.5568C37.9626 19.5554 38.0043 19.5532 38.0453 19.5502L38.0453 20.4863L37.4521 20.5082C36.8603 20.5288 36.456 20.4262 36.2392 20.2006C36.0986 20.0571 36.0283 19.8359 36.0283 19.5371L36.0283 16.5883L35.3603 16.5883L35.3603 15.6962L36.0283 15.6962L36.0283 14.3603L37.2675 14.3603L37.2675 15.6962L38.0453 15.6962L38.0453 16.5883L37.2675 16.5883L37.2675 19.1196C37.2675 19.3159 37.2924 19.4374 37.3422 19.4843Z"/>
<path clip-path="url(#TextBounds_11)" d="M40.7831 20.6005C40.1738 20.6005 39.6362 20.4042 39.1703 20.0117C38.7045 19.6191 38.4716 18.9804 38.4716 18.0956C38.4716 17.2665 38.6818 16.6308 39.1022 16.1884C39.5226 15.746 40.0683 15.5248 40.7392 15.5248C41.1376 15.5248 41.4965 15.5996 41.8159 15.749C42.1352 15.8984 42.3989 16.1342 42.6069 16.4565C42.7944 16.7407 42.9159 17.0703 42.9716 17.4453C43.0038 17.665 43.017 17.9814 43.0112 18.3945L39.7328 18.3945C39.7504 18.8749 39.9013 19.2119 40.1855 19.4052C40.3583 19.5253 40.5663 19.5854 40.8095 19.5854C41.0673 19.5854 41.2768 19.5122 41.4379 19.3657C41.5258 19.2866 41.6034 19.1767 41.6708 19.0361L42.9496 19.0361C42.9174 19.3203 42.7695 19.6088 42.5058 19.9018C42.0956 20.3676 41.5214 20.6005 40.7831 20.6005ZM40.7392 16.5576C40.4492 16.5576 40.2243 16.6484 40.0646 16.83C39.905 17.0117 39.8046 17.2578 39.7636 17.5683L41.7104 17.5683C41.6899 17.2372 41.5895 16.986 41.4094 16.8146C41.2292 16.6433 41.0058 16.5576 40.7392 16.5576Z"/>
</g>
</g>
<g opacity="1">
<path d="M307.418 72.8986C296.573 72.8986 24.02 72.8986 24.02 72.8986" fill="none" stroke="#224767" stroke-linecap="round" stroke-linejoin="round" stroke-width="2"/>
<g fill="#224767" stroke="none">
<path d="M24.52 66.8986L22.52 66.8986L22.52 78.8986L24.52 78.8986L24.52 66.8986Z" fill="#224767"/>
<path d="M306.918 78.8986L308.918 78.8986L308.918 66.8986L306.918 66.8986L306.918 78.8986Z" fill="#224767"/>
</g>
</g>
</g>
<g id="Forwar-Study" vectornator:layerName="Forwar Study" visibility="hidden">
<g fill="#000000" opacity="0" stroke="none">
<path clip-path="url(#TextBounds_12)" d="M95.7986 41.6667C95.6736 41.8333 95.6137 42.056 95.6189 42.3346L94.5798 42.3346C94.5902 42.0534 94.6384 41.7865 94.7244 41.5338C94.8155 41.3125 94.9587 41.1081 95.154 40.9206C95.2999 40.7878 95.4731 40.6862 95.6736 40.6159C95.8741 40.5456 96.1202 40.5104 96.4119 40.5104C96.9535 40.5104 97.3904 40.6504 97.7224 40.9303C98.0544 41.2103 98.2205 41.5859 98.2205 42.0573C98.2205 42.3906 98.1215 42.6719 97.9236 42.901C97.7986 43.0443 97.6684 43.1419 97.533 43.194C97.6345 43.194 97.7803 43.2812 97.9705 43.4557C98.2543 43.7187 98.3962 44.0781 98.3962 44.5338C98.3962 45.013 98.2302 45.4342 97.8982 45.7975C97.5662 46.1608 97.0746 46.3424 96.4236 46.3424C95.6215 46.3424 95.0642 46.0807 94.7517 45.5573C94.5876 45.2786 94.4965 44.9141 94.4783 44.4635L95.572 44.4635C95.572 44.6901 95.6085 44.8776 95.6814 45.026C95.8168 45.2995 96.0629 45.4362 96.4197 45.4362C96.6384 45.4362 96.8292 45.3613 96.9919 45.2116C97.1547 45.0618 97.2361 44.8463 97.2361 44.5651C97.2361 44.1927 97.085 43.944 96.783 43.819C96.6111 43.7487 96.3402 43.7135 95.9705 43.7135L95.9705 42.9167C96.3324 42.9115 96.585 42.8763 96.7283 42.8112C96.9757 42.7018 97.0994 42.4805 97.0994 42.1471C97.0994 41.931 97.0362 41.7552 96.9099 41.6198C96.7836 41.4844 96.6059 41.4167 96.3767 41.4167C96.1137 41.4167 95.921 41.5 95.7986 41.6667Z"/>
<path clip-path="url(#TextBounds_12)" d="M100.92 46.3424C100.198 46.3424 99.6925 46.0898 99.4021 45.5846C99.1117 45.0794 98.9665 44.3594 98.9665 43.4245C98.9665 42.4896 99.1117 41.7682 99.4021 41.2604C99.6925 40.7526 100.198 40.4987 100.92 40.4987C101.641 40.4987 102.147 40.7526 102.437 41.2604C102.728 41.7682 102.873 42.4896 102.873 43.4245C102.873 44.3594 102.728 45.0794 102.437 45.5846C102.147 46.0898 101.641 46.3424 100.92 46.3424ZM101.724 43.4245C101.724 42.7422 101.673 42.237 101.57 41.9088C101.467 41.5807 101.25 41.4167 100.92 41.4167C100.589 41.4167 100.37 41.5807 100.263 41.9088C100.157 42.237 100.103 42.7422 100.103 43.4245C100.103 44.0755 100.157 44.5736 100.263 44.9186C100.37 45.2637 100.589 45.4362 100.92 45.4362C101.25 45.4362 101.467 45.2637 101.57 44.9186C101.673 44.5736 101.724 44.0755 101.724 43.4245Z"/>
<path clip-path="url(#TextBounds_12)" d="M108.58 46.2018L107.377 46.2018L107.377 44.0378L105.385 40.444L106.802 40.444L107.998 42.9518L109.142 40.444L110.506 40.444L108.58 44.0378L108.58 46.2018Z"/>
<path clip-path="url(#TextBounds_12)" d="M112.385 46.3424C111.843 46.3424 111.365 46.168 110.951 45.819C110.537 45.47 110.33 44.9023 110.33 44.1159C110.33 43.3789 110.517 42.8138 110.89 42.4206C111.264 42.0273 111.749 41.8307 112.345 41.8307C112.7 41.8307 113.019 41.8971 113.302 42.0299C113.586 42.1628 113.821 42.3724 114.006 42.6588C114.172 42.9115 114.28 43.2044 114.33 43.5378C114.358 43.7331 114.37 44.0143 114.365 44.3815L111.451 44.3815C111.467 44.8086 111.601 45.1081 111.853 45.2799C112.007 45.3867 112.192 45.4401 112.408 45.4401C112.637 45.4401 112.823 45.375 112.967 45.2448C113.045 45.1745 113.114 45.0768 113.174 44.9518L114.31 44.9518C114.282 45.2044 114.15 45.4609 113.916 45.7213C113.551 46.1354 113.041 46.3424 112.385 46.3424ZM112.345 42.7487C112.088 42.7487 111.888 42.8294 111.746 42.9909C111.604 43.1523 111.515 43.3711 111.478 43.6471L113.209 43.6471C113.191 43.3529 113.101 43.1295 112.941 42.9772C112.781 42.8249 112.582 42.7487 112.345 42.7487Z"/>
<path clip-path="url(#TextBounds_12)" d="M115.431 43.9323C115.653 43.8047 115.978 43.7135 116.408 43.6588L116.787 43.612C116.993 43.5859 117.14 43.5534 117.228 43.5143C117.387 43.4466 117.467 43.3411 117.467 43.1979C117.467 43.0234 117.406 42.903 117.285 42.8366C117.164 42.7702 116.986 42.737 116.752 42.737C116.489 42.737 116.302 42.8021 116.193 42.9323C116.115 43.0286 116.063 43.1588 116.037 43.3229L114.963 43.3229C114.986 42.9505 115.09 42.6445 115.275 42.4049C115.569 42.0299 116.075 41.8424 116.791 41.8424C117.257 41.8424 117.671 41.9349 118.033 42.1198C118.395 42.3047 118.576 42.6536 118.576 43.1667L118.576 45.1198C118.576 45.2552 118.579 45.4193 118.584 45.612C118.592 45.7578 118.614 45.8568 118.65 45.9088C118.687 45.9609 118.741 46.0039 118.814 46.0378L118.814 46.2018L117.603 46.2018C117.569 46.1159 117.546 46.0351 117.533 45.9596C117.52 45.8841 117.51 45.7982 117.502 45.7018C117.348 45.8685 117.171 46.0104 116.97 46.1276C116.731 46.2656 116.46 46.3346 116.158 46.3346C115.773 46.3346 115.454 46.2246 115.203 46.0045C114.952 45.7845 114.826 45.4726 114.826 45.069C114.826 44.5456 115.028 44.1667 115.431 43.9323ZM117.15 45.3151C117.351 45.1745 117.455 44.918 117.463 44.5456L117.463 44.1315C117.392 44.1758 117.321 44.2116 117.25 44.2389C117.178 44.2663 117.08 44.2917 116.955 44.3151L116.705 44.362C116.47 44.4036 116.302 44.4544 116.201 44.5143C116.029 44.6159 115.943 44.7734 115.943 44.987C115.943 45.1771 115.996 45.3144 116.101 45.3991C116.207 45.4837 116.335 45.526 116.486 45.526C116.726 45.526 116.947 45.4557 117.15 45.3151Z"/>
<path clip-path="url(#TextBounds_12)" d="M121.838 42.9753C121.783 42.9726 121.739 42.9713 121.705 42.9713C121.257 42.9713 120.956 43.1172 120.802 43.4088C120.717 43.5729 120.674 43.8255 120.674 44.1667L120.674 46.2018L119.552 46.2018L119.552 41.944L120.615 41.944L120.615 42.6862C120.787 42.4023 120.937 42.2083 121.064 42.1042C121.273 41.9297 121.543 41.8424 121.877 41.8424C121.898 41.8424 121.915 41.8431 121.929 41.8444C121.944 41.8457 121.976 41.8476 122.025 41.8503L122.025 42.9909C121.955 42.9831 121.892 42.9779 121.838 42.9753Z"/>
<path clip-path="url(#TextBounds_12)" d="M123.81 42.7878C123.706 42.8633 123.654 42.9518 123.654 43.0534C123.654 43.181 123.709 43.2734 123.818 43.3307C123.927 43.3906 124.314 43.4935 124.978 43.6393C125.421 43.7435 125.753 43.901 125.974 44.112C126.193 44.3255 126.302 44.5924 126.302 44.9128C126.302 45.3346 126.146 45.679 125.832 45.946C125.518 46.2129 125.033 46.3463 124.377 46.3463C123.707 46.3463 123.213 46.2051 122.894 45.9225C122.575 45.64 122.416 45.2799 122.416 44.8424L123.545 44.8424C123.568 45.0404 123.619 45.181 123.697 45.2643C123.835 45.4128 124.09 45.487 124.463 45.487C124.681 45.487 124.855 45.4544 124.984 45.3893C125.113 45.3242 125.177 45.2266 125.177 45.0963C125.177 44.9713 125.125 44.8763 125.021 44.8112C124.917 44.7461 124.53 44.6341 123.861 44.4753C123.379 44.3555 123.039 44.2057 122.842 44.026C122.644 43.849 122.545 43.5937 122.545 43.2604C122.545 42.8672 122.699 42.5293 123.008 42.2467C123.316 41.9642 123.75 41.8229 124.31 41.8229C124.842 41.8229 125.274 41.929 125.609 42.1413C125.944 42.3535 126.136 42.72 126.185 43.2409L125.072 43.2409C125.056 43.0976 125.016 42.9844 124.951 42.901C124.829 42.75 124.62 42.6745 124.326 42.6745C124.084 42.6745 123.912 42.7122 123.81 42.7878Z"/>
</g>
<g opacity="1">
<path d="M130.582 38.8005C130.582 41.5855 130.578 70.9096 130.578 70.9096" fill="none" stroke="#c0cad8" stroke-linecap="square" stroke-linejoin="bevel" stroke-width="2"/>
<g fill="#c0cad8" stroke="none">
<path d="M136.582 39.3012L136.582 37.3012L124.582 37.2997L124.582 39.2997L136.582 39.3012Z" fill="#c0cad8"/>
</g>
</g>
<g fill="#000000" opacity="1" stroke="none">
<path clip-path="url(#TextBounds_13)" d="M96.1853 44.9128C96.0811 45.0013 95.9939 45.1042 95.9236 45.2213L98.3962 45.2213L98.3962 46.2018L94.5173 46.2018C94.5277 45.7956 94.615 45.4245 94.779 45.0885C94.9379 44.7109 95.3129 44.3112 95.904 43.8893C96.4171 43.5221 96.7491 43.2591 96.9001 43.1003C97.1319 42.8529 97.2478 42.582 97.2478 42.2878C97.2478 42.0482 97.1814 41.849 97.0486 41.6901C96.9158 41.5312 96.7257 41.4518 96.4783 41.4518C96.1397 41.4518 95.9093 41.5781 95.7869 41.8307C95.7165 41.9766 95.6749 42.2083 95.6619 42.526L94.5798 42.526C94.5981 42.0443 94.6853 41.6549 94.8415 41.3581C95.1384 40.793 95.6658 40.5104 96.4236 40.5104C97.0225 40.5104 97.4991 40.6764 97.8533 41.0085C98.2074 41.3405 98.3845 41.7799 98.3845 42.3268C98.3845 42.7461 98.2595 43.1185 98.0095 43.444C97.8455 43.6601 97.5759 43.901 97.2009 44.1667L96.7556 44.4831C96.477 44.681 96.2869 44.8242 96.1853 44.9128Z"/>
<path clip-path="url(#TextBounds_13)" d="M100.92 46.3424C100.198 46.3424 99.6925 46.0898 99.4021 45.5846C99.1117 45.0794 98.9665 44.3594 98.9665 43.4245C98.9665 42.4896 99.1117 41.7682 99.4021 41.2604C99.6925 40.7526 100.198 40.4987 100.92 40.4987C101.641 40.4987 102.147 40.7526 102.437 41.2604C102.728 41.7682 102.873 42.4896 102.873 43.4245C102.873 44.3594 102.728 45.0794 102.437 45.5846C102.147 46.0898 101.641 46.3424 100.92 46.3424ZM101.724 43.4245C101.724 42.7422 101.673 42.237 101.57 41.9088C101.467 41.5807 101.25 41.4167 100.92 41.4167C100.589 41.4167 100.37 41.5807 100.263 41.9088C100.157 42.237 100.103 42.7422 100.103 43.4245C100.103 44.0755 100.157 44.5736 100.263 44.9186C100.37 45.2637 100.589 45.4362 100.92 45.4362C101.25 45.4362 101.467 45.2637 101.57 44.9186C101.673 44.5736 101.724 44.0755 101.724 43.4245Z"/>
<path clip-path="url(#TextBounds_13)" d="M108.58 46.2018L107.377 46.2018L107.377 44.0378L105.385 40.444L106.802 40.444L107.998 42.9518L109.142 40.444L110.506 40.444L108.58 44.0378L108.58 46.2018Z"/>
<path clip-path="url(#TextBounds_13)" d="M112.385 46.3424C111.843 46.3424 111.365 46.168 110.951 45.819C110.537 45.47 110.33 44.9023 110.33 44.1159C110.33 43.3789 110.517 42.8138 110.89 42.4206C111.264 42.0273 111.749 41.8307 112.345 41.8307C112.7 41.8307 113.019 41.8971 113.302 42.0299C113.586 42.1628 113.821 42.3724 114.006 42.6588C114.172 42.9115 114.28 43.2044 114.33 43.5378C114.358 43.7331 114.37 44.0143 114.365 44.3815L111.451 44.3815C111.467 44.8086 111.601 45.1081 111.853 45.2799C112.007 45.3867 112.192 45.4401 112.408 45.4401C112.637 45.4401 112.823 45.375 112.967 45.2448C113.045 45.1745 113.114 45.0768 113.174 44.9518L114.31 44.9518C114.282 45.2044 114.15 45.4609 113.916 45.7213C113.551 46.1354 113.041 46.3424 112.385 46.3424ZM112.345 42.7487C112.088 42.7487 111.888 42.8294 111.746 42.9909C111.604 43.1523 111.515 43.3711 111.478 43.6471L113.209 43.6471C113.191 43.3529 113.101 43.1295 112.941 42.9772C112.781 42.8249 112.582 42.7487 112.345 42.7487Z"/>
<path clip-path="url(#TextBounds_13)" d="M115.431 43.9323C115.653 43.8047 115.978 43.7135 116.408 43.6588L116.787 43.612C116.993 43.5859 117.14 43.5534 117.228 43.5143C117.387 43.4466 117.467 43.3411 117.467 43.1979C117.467 43.0234 117.406 42.903 117.285 42.8366C117.164 42.7702 116.986 42.737 116.752 42.737C116.489 42.737 116.302 42.8021 116.193 42.9323C116.115 43.0286 116.063 43.1588 116.037 43.3229L114.963 43.3229C114.986 42.9505 115.09 42.6445 115.275 42.4049C115.569 42.0299 116.075 41.8424 116.791 41.8424C117.257 41.8424 117.671 41.9349 118.033 42.1198C118.395 42.3047 118.576 42.6536 118.576 43.1667L118.576 45.1198C118.576 45.2552 118.579 45.4193 118.584 45.612C118.592 45.7578 118.614 45.8568 118.65 45.9088C118.687 45.9609 118.741 46.0039 118.814 46.0378L118.814 46.2018L117.603 46.2018C117.569 46.1159 117.546 46.0351 117.533 45.9596C117.52 45.8841 117.51 45.7982 117.502 45.7018C117.348 45.8685 117.171 46.0104 116.97 46.1276C116.731 46.2656 116.46 46.3346 116.158 46.3346C115.773 46.3346 115.454 46.2246 115.203 46.0045C114.952 45.7845 114.826 45.4726 114.826 45.069C114.826 44.5456 115.028 44.1667 115.431 43.9323ZM117.15 45.3151C117.351 45.1745 117.455 44.918 117.463 44.5456L117.463 44.1315C117.392 44.1758 117.321 44.2116 117.25 44.2389C117.178 44.2663 117.08 44.2917 116.955 44.3151L116.705 44.362C116.47 44.4036 116.302 44.4544 116.201 44.5143C116.029 44.6159 115.943 44.7734 115.943 44.987C115.943 45.1771 115.996 45.3144 116.101 45.3991C116.207 45.4837 116.335 45.526 116.486 45.526C116.726 45.526 116.947 45.4557 117.15 45.3151Z"/>
<path clip-path="url(#TextBounds_13)" d="M121.838 42.9753C121.783 42.9726 121.739 42.9713 121.705 42.9713C121.257 42.9713 120.956 43.1172 120.802 43.4088C120.717 43.5729 120.674 43.8255 120.674 44.1667L120.674 46.2018L119.552 46.2018L119.552 41.944L120.615 41.944L120.615 42.6862C120.787 42.4023 120.937 42.2083 121.064 42.1042C121.273 41.9297 121.543 41.8424 121.877 41.8424C121.898 41.8424 121.915 41.8431 121.929 41.8444C121.944 41.8457 121.976 41.8476 122.025 41.8503L122.025 42.9909C121.955 42.9831 121.892 42.9779 121.838 42.9753Z"/>
<path clip-path="url(#TextBounds_13)" d="M123.81 42.7878C123.706 42.8633 123.654 42.9518 123.654 43.0534C123.654 43.181 123.709 43.2734 123.818 43.3307C123.927 43.3906 124.314 43.4935 124.978 43.6393C125.421 43.7435 125.753 43.901 125.974 44.112C126.193 44.3255 126.302 44.5924 126.302 44.9128C126.302 45.3346 126.146 45.679 125.832 45.946C125.518 46.2129 125.033 46.3463 124.377 46.3463C123.707 46.3463 123.213 46.2051 122.894 45.9225C122.575 45.64 122.416 45.2799 122.416 44.8424L123.545 44.8424C123.568 45.0404 123.619 45.181 123.697 45.2643C123.835 45.4128 124.09 45.487 124.463 45.487C124.681 45.487 124.855 45.4544 124.984 45.3893C125.113 45.3242 125.177 45.2266 125.177 45.0963C125.177 44.9713 125.125 44.8763 125.021 44.8112C124.917 44.7461 124.53 44.6341 123.861 44.4753C123.379 44.3555 123.039 44.2057 122.842 44.026C122.644 43.849 122.545 43.5937 122.545 43.2604C122.545 42.8672 122.699 42.5293 123.008 42.2467C123.316 41.9642 123.75 41.8229 124.31 41.8229C124.842 41.8229 125.274 41.929 125.609 42.1413C125.944 42.3535 126.136 42.72 126.185 43.2409L125.072 43.2409C125.056 43.0976 125.016 42.9844 124.951 42.901C124.829 42.75 124.62 42.6745 124.326 42.6745C124.084 42.6745 123.912 42.7122 123.81 42.7878Z"/>
</g>
</g>
</svg>
